<?xml version="1.0" standalone="no"?>
<!DOCTYPE svg PUBLIC "-//W3C//DTD SVG 20010904//EN"
 "http://www.w3.org/TR/2001/REC-SVG-20010904/DTD/svg10.dtd">
<svg version="1.0" xmlns="http://www.w3.org/2000/svg"
 width="500.000000pt" height="500.000000pt" viewBox="0 0 500.000000 500.000000"
 preserveAspectRatio="xMidYMid meet">

<g transform="translate(0.000000,500.000000) scale(0.100000,-0.100000)"
fill="#000000" stroke="none">
<path d="M2712 4798 c-7 -7 -12 -40 -12 -79 0 -58 3 -70 21 -83 22 -15 48 -11
61 8 13 18 9 141 -4 154 -7 7 -21 12 -33 12 -12 0 -26 -5 -33 -12z"/>
<path d="M3439 4510 c-59 -60 -72 -93 -47 -118 22 -22 42 -12 106 48 63 60 76
92 50 118 -23 23 -50 11 -109 -48z"/>
<path d="M2710 4506 c-152 -32 -256 -91 -363 -205 l-67 -72 -64 30 c-99 48
-178 65 -291 64 -84 -1 -114 -6 -189 -31 -48 -17 -100 -39 -115 -48 -87 -57
-186 -164 -230 -251 -44 -88 -65 -245 -47 -355 6 -43 5 -48 -11 -48 -33 0
-141 -41 -183 -69 -193 -130 -271 -332 -215 -560 39 -161 193 -313 356 -350
60 -14 152 -14 167 1 38 38 -4 73 -97 81 -215 18 -391 250 -351 465 14 76 60
167 114 225 50 53 145 103 215 112 121 16 129 25 104 106 -24 79 -21 200 6
282 79 237 320 387 560 348 161 -26 322 -140 384 -273 37 -80 52 -88 126 -63
133 44 294 3 393 -99 31 -32 41 -50 94 -161 l19 -40 105 0 c82 0 119 -5 170
-23 79 -27 104 -43 179 -114 104 -99 157 -251 133 -380 -37 -197 -206 -365
-387 -383 -33 -4 -72 -10 -87 -15 -25 -8 -29 -5 -66 58 -43 71 -155 225 -210
287 l-33 36 -20 -23 c-50 -58 -189 -249 -221 -303 -53 -90 -95 -175 -107 -223
-12 -42 -12 -42 -58 -42 -46 0 -46 0 -28 20 28 31 9 36 -29 6 -25 -19 -46 -26
-78 -26 l-43 1 38 30 c35 30 47 49 28 49 -4 0 -31 -18 -59 -40 -39 -31 -58
-40 -88 -40 l-39 1 25 22 c14 12 41 35 59 50 19 16 30 32 25 36 -5 5 -38 5
-74 1 -36 -5 -67 -6 -70 -3 -3 2 8 15 24 28 21 17 48 25 98 30 45 5 68 11 65
19 -2 7 -22 10 -50 8 -26 -2 -47 0 -47 5 0 18 47 53 71 53 34 0 69 11 69 21 0
5 -14 9 -32 9 l-32 0 34 35 c44 45 30 59 -15 15 l-35 -34 0 28 c0 44 -25 25
-28 -21 -2 -29 -11 -48 -33 -69 l-30 -29 3 52 c4 77 -16 65 -25 -14 -7 -64
-33 -113 -59 -113 -7 0 -4 66 6 134 0 5 -4 10 -10 12 -6 3 -28 -20 -50 -50
-21 -30 -42 -55 -46 -56 -5 0 -8 16 -8 37 0 27 10 49 41 90 49 63 43 86 -7 29
l-34 -39 0 41 c0 29 7 49 25 70 25 30 32 52 16 52 -5 0 -16 -10 -24 -22 -15
-22 -16 -21 -16 30 -1 28 -5 52 -11 52 -5 0 -10 -23 -10 -52 l0 -51 -25 23
c-38 36 -43 15 -7 -29 23 -29 32 -50 32 -77 l0 -38 -40 39 c-57 56 -61 36 -6
-31 37 -46 46 -64 46 -95 0 -22 -2 -39 -4 -39 -2 0 -26 27 -53 60 -26 33 -52
60 -57 60 -4 0 -5 -34 -1 -76 7 -74 7 -76 -14 -65 -29 16 -41 43 -41 93 0 53
-9 88 -23 88 -6 0 -8 -21 -4 -57 l6 -57 -30 30 c-19 19 -32 45 -37 72 -7 44
-29 56 -24 13 3 -24 3 -24 -33 7 -59 52 -77 40 -23 -15 l32 -33 -27 0 c-15 0
-27 -4 -27 -9 0 -12 26 -21 59 -21 17 0 38 -11 56 -30 l29 -30 -52 0 c-76 0
-64 -18 17 -26 59 -5 74 -11 98 -36 l28 -29 -65 6 c-36 4 -70 8 -77 10 -7 2
-15 0 -18 -5 -3 -5 21 -31 55 -57 l60 -48 -41 -3 c-34 -3 -47 2 -88 37 -46 39
-71 50 -71 34 0 -5 17 -22 37 -40 l38 -32 -38 -1 c-26 0 -49 8 -71 25 -49 37
-79 32 -33 -6 l22 -18 -53 -1 c-69 0 -66 -23 4 -31 35 -3 44 -7 32 -13 -17 -8
-26 -36 -11 -36 3 0 21 11 39 25 22 17 45 25 71 25 l38 -1 -40 -34 c-58 -50
-36 -54 33 -5 49 34 67 41 98 38 l37 -3 -53 -40 c-80 -60 -78 -68 16 -60 l79
7 -28 -28 c-22 -23 -41 -31 -98 -39 -79 -11 -90 -32 -14 -27 l50 4 -29 -31
c-23 -23 -39 -31 -75 -33 -26 -2 -44 -7 -41 -13 3 -5 15 -9 28 -7 30 4 28 -6
-10 -45 -41 -43 -28 -56 15 -15 39 38 49 40 45 10 -2 -11 3 -23 10 -25 8 -3
12 5 12 24 0 45 10 66 41 92 l30 23 -7 -51 c-4 -32 -3 -51 4 -51 15 0 22 26
22 81 0 41 5 54 31 81 l30 33 -6 -77 c-3 -48 -2 -78 4 -78 5 0 32 26 60 57
l51 57 0 -38 c0 -30 -10 -50 -47 -97 -52 -67 -50 -94 3 -36 19 20 36 37 39 37
3 0 5 -16 5 -36 0 -25 -9 -47 -32 -75 -32 -40 -32 -65 0 -36 28 25 32 21 32
-28 0 -25 5 -45 10 -45 6 0 10 24 10 53 l0 52 20 -25 c30 -39 36 -15 6 28 -18
26 -26 51 -26 78 l1 39 32 -38 c18 -20 35 -37 40 -37 16 0 5 25 -34 71 -34 41
-40 54 -37 88 l3 40 45 -57 c25 -31 50 -55 55 -52 6 3 9 7 9 10 -1 3 -4 37 -8
75 l-7 70 30 -30 c26 -25 32 -41 38 -98 9 -79 29 -91 25 -14 l-3 52 30 -29
c22 -21 31 -39 31 -62 0 -40 9 -66 21 -58 5 3 9 17 9 32 l0 26 33 -32 c18 -18
36 -32 40 -32 16 0 5 26 -25 58 -33 33 -33 33 -8 30 14 -2 26 2 28 7 1 6 -17
11 -40 13 -40 3 -88 32 -88 54 0 4 23 8 52 8 71 0 51 18 -29 26 -52 6 -67 12
-93 38 l-30 32 76 -9 c42 -4 79 -5 82 -2 4 4 -11 21 -32 38 -89 72 -86 66 -43
67 29 0 51 -10 92 -40 30 -22 59 -40 65 -40 21 0 9 18 -32 46 l-42 29 43 3
c33 3 48 -2 72 -22 44 -38 68 -33 32 6 -15 17 -14 18 29 18 l46 0 6 -47 c12
-84 60 -167 129 -223 75 -61 135 -82 230 -82 93 1 166 28 233 86 103 91 149
237 110 355 -22 69 -21 71 27 71 58 0 150 25 211 58 28 14 87 63 132 107 73
72 84 89 114 165 60 157 61 274 3 419 -31 79 -66 128 -141 198 l-56 52 19 53
c26 77 32 265 12 345 -29 111 -75 206 -134 273 -104 120 -181 173 -313 215
-104 33 -243 41 -340 21z m251 -90 c210 -45 390 -216 444 -423 20 -73 20 -221
1 -292 -8 -29 -16 -55 -18 -57 -2 -2 -33 6 -69 17 -35 11 -102 22 -149 24
l-85 5 -36 66 c-44 84 -115 154 -199 198 -103 54 -206 67 -335 41 -26 -6 -32
-2 -49 27 -11 18 -36 53 -56 78 -56 68 -55 66 -14 118 44 54 50 59 124 109
135 91 285 122 441 89z m-42 -1553 c93 -124 195 -306 211 -375 26 -119 -53
-266 -173 -319 -112 -50 -265 -23 -341 62 -62 68 -80 114 -81 204 0 73 3 87
39 160 22 44 51 98 65 120 37 59 185 255 192 255 4 0 43 -48 88 -107z m-979
-328 l0 -50 -39 40 c-34 35 -40 48 -45 100 l-7 60 45 -50 c41 -45 45 -55 46
-100z m95 77 c-6 -50 -12 -65 -41 -93 l-34 -33 0 50 c0 43 6 58 36 98 21 25
39 44 42 42 2 -3 1 -32 -3 -64z m100 -97 c-46 -41 -54 -45 -105 -45 l-55 0 37
36 c31 32 45 38 100 44 34 4 65 8 68 8 3 1 -17 -19 -45 -43z m-255 -10 l35
-35 -52 0 c-46 0 -57 4 -100 42 l-48 41 65 -6 c56 -6 69 -12 100 -42z m0 -99
c-30 -29 -44 -35 -100 -41 -36 -3 -63 -4 -60 -2 3 3 25 21 50 41 38 30 53 36
95 36 l50 0 -35 -34z m250 -2 c28 -20 50 -38 48 -39 -2 -1 -30 0 -64 2 -51 4
-67 11 -100 39 l-39 33 52 1 c45 0 60 -5 103 -36z m-231 -125 c-23 -27 -43
-48 -44 -47 -2 2 0 32 4 67 7 56 12 67 42 92 l34 28 3 -45 c3 -40 -1 -50 -39
-95z m138 9 l4 -63 -21 25 c-45 53 -60 85 -60 130 l0 45 37 -37 c33 -33 37
-43 40 -100z"/>
<path d="M2775 2795 c-73 -101 -155 -238 -167 -279 -40 -139 35 -273 172 -306
45 -11 54 -10 68 3 21 22 3 43 -46 51 -82 13 -153 94 -154 175 0 46 41 129
141 280 38 58 67 111 64 118 -10 27 -39 11 -78 -42z"/>
<path d="M3632 3878 c-17 -17 -15 -44 4 -62 18 -18 114 -22 143 -6 28 14 34
40 15 61 -13 15 -32 19 -84 19 -38 0 -71 -5 -78 -12z"/>
<path d="M2353 3428 l-140 -283 84 -3 c45 -1 83 -4 83 -5 0 -2 -9 -68 -20
-147 -11 -79 -19 -145 -17 -146 2 -2 19 27 39 64 21 37 80 139 133 227 l96
160 -83 5 c-81 5 -83 6 -81 30 1 14 14 103 28 199 14 96 24 176 21 178 -2 2
-66 -123 -143 -279z"/>
<path d="M3545 2639 c-90 -109 -227 -315 -278 -419 -41 -84 -42 -87 -41 -190
0 -94 3 -111 28 -163 35 -70 122 -154 203 -194 52 -25 68 -28 158 -28 92 0
105 3 165 31 165 80 263 259 230 418 -22 106 -151 331 -285 496 -34 41 -70 87
-79 103 -10 15 -22 27 -26 27 -5 0 -38 -36 -75 -81z m189 -165 c60 -83 129
-192 158 -252 52 -103 53 -108 53 -192 0 -73 -4 -92 -28 -137 -39 -76 -81
-118 -148 -152 -114 -57 -230 -51 -336 19 -137 89 -190 263 -123 405 74 156
278 455 311 455 4 0 55 -66 113 -146z"/>
<path d="M3545 2415 c-72 -95 -147 -225 -176 -305 -20 -57 -21 -68 -11 -119
25 -120 125 -211 230 -211 35 0 52 4 56 15 8 22 -21 45 -58 45 -51 0 -124 52
-148 106 -29 68 -27 122 10 196 35 72 97 170 152 243 49 64 57 105 21 105 -13
0 -40 -27 -76 -75z"/>
<path d="M989 2473 c0 -56 -1 -57 -16 -35 -8 12 -22 22 -30 22 -11 0 -11 -4
-2 -22 6 -13 20 -33 31 -44 14 -16 18 -33 16 -65 l-3 -44 -30 42 c-27 38 -55
56 -55 36 0 -5 20 -35 45 -68 36 -47 45 -68 45 -99 l0 -39 -21 19 c-12 10 -35
38 -51 62 -44 63 -52 56 -44 -40 l7 -83 -32 32 c-27 27 -34 42 -41 99 -11 91
-31 111 -26 26 1 -34 0 -62 -3 -62 -3 0 -17 12 -32 28 -19 20 -27 39 -29 76
-3 57 -28 78 -28 25 l0 -33 -33 32 c-31 30 -57 41 -57 25 0 -4 17 -24 37 -45
l37 -38 -33 0 c-51 0 -32 -24 21 -28 39 -3 50 -8 72 -37 l26 -34 -55 6 c-69 7
-76 -13 -7 -22 98 -12 109 -16 137 -45 l29 -30 -35 1 c-19 0 -56 4 -82 8 -27
5 -50 4 -53 -1 -6 -9 27 -43 91 -94 l30 -24 -43 0 c-37 0 -52 7 -99 45 -30 25
-59 45 -64 45 -11 0 -12 -30 -1 -30 4 -1 23 -14 42 -30 l34 -30 -47 0 c-37 0
-53 6 -80 30 -19 17 -37 30 -41 30 -12 0 -6 -24 11 -42 15 -17 14 -18 -35 -18
-29 0 -52 -4 -52 -10 0 -5 23 -10 50 -10 54 0 59 -4 33 -32 -29 -32 -5 -32 39
1 29 22 53 31 80 31 21 0 38 -3 38 -7 0 -5 -18 -21 -40 -37 -22 -17 -40 -33
-40 -37 0 -22 23 -13 76 31 48 40 66 50 97 50 21 0 37 -4 35 -9 -1 -5 -29 -30
-60 -55 -32 -26 -58 -52 -58 -58 0 -7 27 -8 83 -3 l82 7 -30 -31 c-26 -27 -39
-31 -102 -37 -52 -5 -73 -11 -73 -21 0 -10 13 -12 58 -7 l57 6 -31 -31 c-22
-24 -43 -34 -78 -39 -49 -7 -60 -27 -14 -27 l27 0 -35 -37 c-51 -51 -34 -72
17 -22 l39 38 0 -33 c0 -51 24 -33 28 21 2 36 10 52 36 77 l32 31 -4 -60 c-3
-39 -1 -60 6 -60 11 0 16 24 26 109 3 32 13 52 36 75 l32 31 -7 -87 c-5 -54
-4 -88 2 -88 5 0 29 27 53 60 24 33 47 60 52 60 4 0 8 -17 8 -37 0 -29 -11
-52 -45 -97 -25 -33 -45 -63 -45 -68 0 -17 16 -7 52 34 l37 43 1 -41 c0 -31
-7 -51 -30 -79 -17 -21 -30 -42 -30 -46 0 -17 22 -9 41 14 l18 22 1 -58 c0
-73 23 -74 30 -2 4 43 7 46 19 32 7 -10 17 -17 22 -17 16 0 10 21 -16 54 -18
23 -25 45 -25 76 l0 43 38 -44 c56 -62 61 -32 6 35 -40 50 -45 61 -42 99 l3
42 49 -60 c26 -33 53 -62 58 -64 7 -2 8 26 3 84 l-7 88 30 -34 c25 -28 31 -46
37 -106 5 -54 11 -73 22 -73 11 0 13 12 7 63 l-6 62 32 -32 c26 -25 34 -41 38
-82 3 -36 9 -51 19 -51 11 0 14 8 11 30 -3 17 -2 30 1 30 2 0 20 -17 39 -37
23 -26 36 -34 40 -25 2 8 -10 28 -27 46 -37 38 -38 42 -8 41 43 0 27 20 -21
28 -36 6 -57 17 -78 39 l-29 30 58 -4 c40 -3 57 -1 57 7 0 8 -27 15 -72 19
-59 6 -78 12 -100 34 -16 14 -28 29 -28 32 0 3 26 3 58 -1 82 -10 112 -10 112
0 0 5 -27 31 -60 57 -33 26 -60 51 -60 55 0 5 17 9 38 9 30 0 48 -10 95 -50
85 -73 108 -68 35 7 l-42 43 40 0 c30 0 49 -8 74 -30 35 -29 60 -38 60 -21 0
5 -7 15 -17 22 -14 12 -11 15 32 19 72 7 71 30 -1 30 -56 0 -57 1 -36 16 20
14 31 44 16 44 -3 0 -23 -13 -44 -30 -29 -23 -48 -30 -81 -30 l-44 1 44 38
c28 25 39 41 32 46 -7 4 -35 -13 -66 -39 -47 -41 -59 -46 -100 -46 l-48 0 66
53 c62 49 77 73 46 71 -8 0 -45 -4 -84 -8 l-70 -7 34 35 c23 24 44 36 62 36
51 0 119 13 119 23 0 5 -22 8 -55 5 -30 -3 -55 -2 -55 2 0 19 59 60 87 60 17
0 38 3 47 6 27 10 18 24 -16 24 l-32 0 38 39 c48 49 30 69 -19 21 l-33 -32 -4
28 c-5 45 -22 34 -28 -19 -5 -37 -14 -55 -39 -80 l-33 -32 6 58 c5 46 3 57 -8
57 -10 0 -16 -20 -21 -74 -6 -65 -11 -78 -37 -103 l-30 -28 7 83 c4 45 3 82
-1 82 -5 0 -32 -26 -61 -57 l-52 -58 -1 39 c0 32 9 51 45 97 43 54 54 79 38
79 -5 0 -25 -19 -45 -42 l-37 -43 -1 44 c0 34 6 51 30 78 35 40 30 66 -6 32
l-24 -22 0 51 c0 40 -4 52 -15 52 -12 0 -15 -13 -16 -57z m-39 -316 c35 -48
40 -60 40 -108 l-1 -54 -39 44 c-25 27 -40 53 -40 70 0 14 -3 43 -6 64 -4 20
-4 37 -1 37 4 0 24 -24 47 -53z m151 -15 c-6 -55 -12 -68 -44 -100 l-37 -37 0
56 c0 52 3 60 41 103 23 26 43 46 44 44 2 -2 0 -31 -4 -66z m-193 -95 c7 -6
22 -23 33 -39 l20 -28 -53 0 c-49 0 -57 4 -103 45 l-50 45 70 -6 c39 -4 76
-11 83 -17z m289 -22 c-50 -41 -61 -45 -108 -45 l-53 0 38 39 c39 40 53 45
144 49 l34 2 -55 -45z m-237 -73 c0 -4 -17 -24 -37 -44 -33 -31 -46 -36 -100
-41 -35 -3 -63 -4 -63 -2 0 2 25 24 56 49 47 39 62 46 100 46 24 0 44 -4 44
-8z m234 -38 c31 -25 56 -46 56 -48 0 -1 -30 1 -67 6 -56 6 -72 13 -100 40
-18 17 -33 36 -33 40 0 4 20 8 44 8 38 0 53 -7 100 -46z m-245 -140 c-23 -30
-43 -53 -45 -52 -1 2 1 34 6 72 7 58 13 74 42 103 l33 34 3 -51 c3 -48 0 -56
-39 -106z m156 12 l7 -69 -46 52 c-43 49 -46 55 -46 109 l0 57 39 -40 c35 -36
40 -47 46 -109z"/>
<path d="M2120 1968 l0 -51 -23 21 c-46 43 -50 22 -7 -33 22 -27 30 -49 30
-76 0 -22 -3 -39 -7 -39 -5 0 -21 18 -37 40 -17 22 -33 40 -38 40 -19 0 -5
-32 37 -81 36 -43 45 -60 45 -91 0 -21 -4 -38 -10 -38 -5 0 -10 3 -10 8 0 13
-98 117 -104 111 -3 -3 -3 -40 2 -82 4 -43 5 -77 1 -77 -16 0 -50 61 -55 97
-12 87 -15 103 -26 103 -7 0 -9 -20 -6 -55 3 -30 3 -55 1 -55 -14 0 -62 70
-63 92 0 14 -3 33 -6 42 -10 27 -24 18 -24 -16 l0 -33 -36 38 c-45 47 -65 38
-24 -11 l31 -37 -26 -3 c-51 -7 -15 -32 46 -32 22 0 79 -45 79 -62 0 -4 -25
-4 -55 -1 -37 4 -55 2 -55 -5 0 -13 20 -18 99 -26 55 -6 75 -16 93 -49 10 -19
7 -19 -71 -12 -45 4 -81 3 -81 -2 0 -5 27 -29 60 -53 33 -25 60 -48 60 -52 0
-5 -17 -8 -39 -8 -31 0 -49 9 -93 45 -52 42 -78 55 -78 38 0 -5 16 -21 35 -36
44 -35 44 -47 2 -47 -22 0 -44 10 -67 30 -53 44 -82 39 -38 -7 l21 -23 -56 0
c-31 0 -57 -4 -57 -10 0 -5 26 -10 57 -10 l56 0 -21 -23 c-43 -46 -22 -50 33
-7 28 22 48 30 79 30 l41 0 -44 -42 c-60 -58 -35 -60 37 -4 45 36 66 46 95 46
20 0 37 -3 37 -7 0 -5 -27 -28 -60 -53 -32 -25 -59 -49 -59 -54 -1 -5 35 -5
80 -2 66 6 80 5 74 -6 -21 -36 -40 -47 -94 -53 -81 -9 -101 -14 -101 -27 0 -7
18 -9 55 -5 30 3 55 2 55 -3 0 -18 -63 -60 -90 -60 -34 0 -60 -9 -60 -21 0 -5
13 -9 29 -9 l30 0 -34 -37 c-46 -50 -32 -64 16 -17 l39 38 0 -32 c0 -34 14
-43 24 -16 3 9 6 30 6 47 0 29 41 87 61 87 5 0 5 -23 2 -51 -5 -42 -3 -51 8
-47 9 3 17 29 22 74 6 58 12 74 38 99 l30 30 -6 -50 c-3 -27 -8 -67 -11 -87
-8 -55 13 -48 66 22 25 33 48 59 53 60 4 0 7 -17 7 -38 0 -31 -9 -49 -50 -97
-32 -38 -46 -63 -40 -69 6 -6 24 7 49 35 l40 44 1 -42 c0 -33 -7 -50 -30 -76
-30 -34 -38 -57 -21 -57 5 0 14 7 21 15 21 26 30 17 30 -30 0 -25 5 -45 10
-45 6 0 10 23 10 52 l0 51 25 -23 c18 -17 25 -19 25 -9 0 8 -11 30 -25 49 -17
23 -25 46 -25 74 l1 41 38 -44 c56 -63 62 -33 7 35 -37 45 -46 63 -46 95 0 21
3 39 8 39 4 0 27 -27 50 -60 24 -33 48 -60 54 -60 7 0 8 27 4 83 l-7 82 30
-30 c23 -23 32 -42 37 -80 8 -77 13 -95 26 -95 7 0 9 18 5 56 l-6 57 29 -28
c22 -21 32 -42 36 -77 7 -51 32 -63 26 -13 l-3 29 42 -39 c52 -47 67 -30 18
21 l-33 34 32 0 c34 0 43 14 16 24 -9 3 -30 6 -48 6 -22 0 -41 9 -59 28 -15
15 -27 31 -27 35 0 3 23 3 51 0 42 -5 51 -3 47 8 -3 9 -29 17 -74 22 -59 6
-73 12 -99 38 l-30 31 83 -7 c53 -4 82 -3 82 4 0 5 -24 29 -54 53 -30 24 -55
46 -55 51 -1 4 16 7 37 7 30 0 49 -10 96 -50 53 -44 76 -53 76 -31 0 4 -18 20
-40 37 -22 16 -40 32 -40 37 0 4 18 7 40 7 29 0 48 -7 73 -30 34 -30 57 -38
57 -21 0 5 -7 14 -15 21 -26 21 -17 30 30 30 25 0 45 5 45 10 0 6 -23 10 -52
10 l-51 0 22 24 c35 37 7 42 -36 7 -27 -23 -48 -31 -75 -31 -21 0 -38 3 -38 6
0 4 19 24 43 45 61 55 23 50 -46 -6 -43 -35 -64 -45 -91 -45 -20 0 -36 3 -36
8 0 7 77 72 109 91 28 18 1 27 -56 20 -32 -4 -69 -8 -82 -8 l-25 -1 29 30 c28
29 39 33 138 45 66 9 60 28 -8 23 -30 -1 -55 0 -55 3 0 15 59 59 81 59 34 0
69 11 69 21 0 5 -14 9 -32 9 l-32 0 38 39 c21 21 34 41 28 44 -5 4 -24 -9 -42
-28 -41 -42 -49 -43 -47 -9 4 48 -20 37 -26 -12 -5 -45 -31 -94 -54 -101 -8
-3 -10 12 -6 51 4 38 2 56 -5 56 -13 0 -18 -18 -26 -95 -5 -38 -14 -57 -37
-80 l-31 -30 7 84 c9 101 1 102 -65 15 l-45 -59 -3 39 c-2 28 2 47 17 65 50
65 73 102 67 108 -4 4 -24 -13 -46 -37 l-39 -45 -1 41 c0 30 8 51 30 80 16 21
30 42 30 47 0 15 -22 6 -41 -15 l-18 -23 -1 53 c0 28 -4 52 -10 52 -5 0 -10
-23 -10 -52z m-42 -314 c38 -48 43 -59 40 -98 l-3 -44 -38 33 c-34 29 -38 39
-45 99 -5 36 -6 66 -3 65 3 0 25 -25 49 -55z m145 -6 c-5 -49 -13 -71 -36
-100 -17 -21 -34 -38 -39 -38 -4 0 -8 21 -8 47 0 39 7 55 40 100 23 29 43 53
45 53 3 0 2 -28 -2 -62z m-165 -120 c17 -18 32 -36 32 -40 0 -4 -21 -8 -47 -8
-42 0 -55 6 -103 47 l-55 46 70 -7 c60 -6 75 -12 103 -38z m258 -3 c-49 -38
-66 -45 -102 -45 -24 0 -44 4 -44 8 0 14 64 70 85 75 11 3 42 5 69 6 l49 1
-57 -45z m-226 -73 c0 -4 -15 -23 -33 -40 -29 -28 -43 -33 -103 -39 l-69 -6
55 46 c48 40 61 46 103 46 26 1 47 -3 47 -7z m227 -33 c29 -23 53 -44 53 -46
0 -3 -30 -2 -67 2 -68 7 -101 25 -124 68 -9 15 -4 17 37 17 40 0 55 -6 101
-41z m-197 -35 c0 -39 -6 -55 -37 -93 -57 -72 -56 -72 -49 4 6 60 11 75 38
103 18 17 36 32 40 32 4 0 8 -21 8 -46z m67 8 c23 -29 32 -52 38 -100 4 -34 5
-62 2 -62 -3 0 -24 26 -46 57 -33 46 -41 67 -41 100 0 24 4 43 8 43 5 0 22
-17 39 -38z"/>
<path d="M3043 1864 c-15 -19 -50 -63 -77 -97 -78 -98 -171 -245 -223 -353
-46 -94 -48 -103 -48 -184 0 -72 4 -94 28 -144 55 -119 140 -190 266 -222 174
-44 379 59 441 221 62 164 30 282 -143 540 -76 113 -187 258 -207 270 -5 3
-21 -11 -37 -31z m83 -117 c123 -154 244 -358 268 -450 26 -99 -2 -193 -81
-278 -81 -87 -184 -121 -297 -99 -110 22 -178 74 -232 180 -24 46 -29 68 -29
130 0 70 4 83 48 175 27 55 92 160 145 233 53 74 101 140 107 148 16 23 27 16
71 -39z"/>
<path d="M3052 1668 c-39 -49 -151 -224 -188 -294 -36 -70 -44 -94 -44 -140 0
-67 17 -109 66 -164 48 -52 104 -82 163 -84 43 -1 46 1 46 24 0 21 -6 26 -36
30 -92 16 -167 88 -176 173 -4 37 0 58 24 109 33 70 118 210 169 277 27 34 31
47 23 62 -11 22 -32 25 -47 7z"/>
<path d="M3818 1572 c-170 -213 -302 -436 -329 -557 -35 -157 69 -358 224
-435 248 -122 532 8 602 275 21 84 19 129 -14 223 -51 146 -170 329 -376 579
l-20 24 -87 -109z m163 -89 c147 -196 244 -360 274 -465 41 -144 -45 -307
-204 -385 -49 -24 -68 -28 -146 -28 -79 0 -97 3 -150 29 -73 37 -140 104 -174
176 -21 45 -26 70 -26 135 0 78 2 85 56 195 31 63 91 162 133 220 42 58 92
129 112 158 20 28 41 52 48 52 6 0 41 -39 77 -87z"/>
<path d="M3786 1287 c-148 -222 -174 -296 -146 -414 24 -100 125 -182 236
-191 42 -3 52 -1 58 13 9 25 -12 45 -48 45 -50 0 -131 53 -162 106 -39 67 -42
120 -10 189 27 59 144 249 198 322 34 46 32 73 -6 73 -21 0 -40 -24 -120 -143z"/>
<path d="M1207 1413 c-4 -3 -7 -29 -7 -57 l0 -51 -20 25 c-13 17 -22 22 -29
14 -8 -7 -2 -22 20 -52 25 -35 30 -49 27 -89 l-3 -48 -34 47 c-30 42 -51 53
-51 28 0 -5 20 -34 46 -65 41 -52 45 -60 42 -104 l-3 -49 -50 66 c-28 36 -55
64 -60 61 -11 -5 -12 -39 -3 -124 l7 -60 -40 42 c-31 34 -39 50 -39 80 0 66
-12 113 -27 113 -12 0 -14 -11 -8 -62 l7 -63 -33 32 c-27 26 -34 43 -39 85 -6
62 -30 79 -30 22 l0 -38 -44 43 c-55 54 -76 37 -22 -18 44 -45 45 -52 6 -44
-23 4 -30 2 -30 -9 0 -11 15 -17 52 -21 37 -5 59 -14 80 -34 15 -15 28 -31 28
-36 0 -4 -24 -5 -54 -2 -33 4 -56 3 -60 -3 -10 -16 5 -21 84 -28 61 -6 78 -12
106 -37 19 -16 34 -32 34 -36 0 -4 -39 -3 -86 1 -48 5 -89 6 -93 2 -3 -3 5
-15 19 -27 14 -12 45 -39 70 -59 l44 -38 -48 0 c-42 0 -54 6 -109 50 -59 48
-87 61 -87 41 0 -5 21 -27 48 -50 l47 -40 -51 -1 c-43 0 -54 4 -79 30 -16 17
-35 30 -42 30 -21 0 -15 -28 10 -42 20 -12 17 -13 -37 -18 -84 -7 -88 -30 -5
-30 l62 0 -21 -23 c-44 -47 -18 -51 37 -6 33 26 45 30 87 27 l48 -3 -47 -35
c-42 -32 -60 -60 -38 -60 4 0 38 23 74 50 55 42 73 50 108 50 42 0 42 0 23
-21 -10 -11 -40 -36 -66 -56 -57 -42 -64 -68 -15 -60 17 3 59 9 92 13 l60 6
-34 -35 c-29 -30 -43 -37 -90 -42 -89 -10 -112 -16 -108 -28 2 -8 24 -11 63
-9 l59 4 -30 -31 c-23 -23 -43 -32 -84 -38 -65 -10 -82 -33 -25 -33 l38 0 -37
-38 c-34 -35 -47 -62 -30 -62 4 0 27 19 50 42 l43 42 0 -38 c0 -57 24 -40 30
22 5 42 12 58 39 85 l33 32 -6 -62 c-5 -52 -3 -63 9 -63 8 0 15 3 15 8 6 100
20 156 46 183 37 39 47 37 40 -8 -17 -120 -18 -143 -4 -143 7 1 36 30 63 66
l50 65 3 -45 c3 -40 -2 -51 -42 -104 -26 -33 -46 -65 -46 -71 0 -24 26 -8 55
32 l30 42 3 -48 c3 -42 -1 -53 -27 -83 -17 -19 -31 -39 -31 -44 0 -19 29 -10
42 13 12 20 13 17 18 -37 7 -83 30 -88 30 -7 0 64 7 74 28 41 13 -21 42 -28
42 -10 0 5 -16 27 -35 49 -30 33 -35 45 -35 87 l1 49 44 -50 c30 -34 47 -47
54 -40 7 7 -8 32 -44 78 -46 57 -55 75 -55 108 0 21 3 39 8 39 4 0 31 -29 61
-65 29 -36 58 -65 63 -65 9 0 6 59 -8 150 l-5 35 35 -35 c32 -32 37 -43 46
-114 11 -84 13 -91 29 -82 5 4 7 29 4 61 -7 62 1 68 39 28 18 -19 27 -43 31
-76 6 -63 27 -87 27 -32 l0 39 38 -37 c65 -64 89 -40 25 25 l-37 38 32 0 c55
0 39 26 -20 33 -41 5 -59 14 -86 40 l-33 33 56 -6 c54 -6 72 0 61 19 -3 4 -38
11 -78 15 -66 6 -76 10 -108 42 l-35 36 75 -7 c41 -3 83 -9 93 -11 31 -9 19
24 -19 53 -20 15 -51 40 -68 55 l-31 27 46 1 c40 0 53 -6 108 -50 34 -27 66
-50 71 -50 26 0 13 21 -32 56 l-52 39 47 3 c41 3 53 -2 94 -33 32 -25 50 -32
57 -25 7 7 2 18 -19 35 l-30 24 63 1 c80 0 81 23 3 30 -53 5 -53 5 -32 24 48
43 11 49 -39 6 -29 -24 -44 -29 -89 -30 l-54 0 46 36 c43 34 61 64 38 64 -6 0
-37 -23 -71 -51 -56 -46 -64 -50 -106 -47 l-46 3 66 53 c36 30 66 58 66 64 0
6 -34 7 -92 3 l-93 -7 32 33 c28 29 41 34 114 43 54 7 84 16 87 25 4 12 -6 13
-57 8 -33 -4 -61 -3 -61 1 0 5 13 20 28 35 19 19 44 29 82 34 55 8 69 29 18
27 -16 -1 -28 1 -28 4 0 3 16 23 36 43 54 55 33 72 -22 18 l-44 -43 0 39 c0
53 -21 32 -27 -28 -4 -35 -13 -53 -41 -79 l-35 -33 6 57 c3 34 1 60 -4 64 -17
10 -20 0 -30 -83 -9 -70 -13 -82 -45 -113 l-35 -35 6 60 c3 33 8 74 11 92 8
53 -13 47 -67 -22 -29 -36 -56 -65 -61 -65 -4 0 -8 18 -8 40 0 35 8 50 55 106
50 58 61 84 36 84 -5 0 -24 -20 -42 -45 -19 -24 -37 -45 -41 -45 -5 0 -8 19
-8 43 0 33 8 51 35 86 19 24 35 48 35 52 0 17 -30 9 -42 -11 -21 -33 -28 -23
-28 35 0 51 -7 65 -23 48z m-34 -418 c23 -27 27 -42 27 -91 l0 -58 -31 30
c-42 40 -46 49 -53 129 -7 69 -7 70 11 47 10 -13 30 -38 46 -57z m154 3 c-6
-65 -9 -74 -44 -110 -20 -21 -41 -38 -45 -38 -4 0 -8 23 -8 50 0 45 5 57 48
110 26 33 49 60 51 60 2 0 1 -32 -2 -72z m-266 -93 c36 -4 54 -14 84 -45 l39
-40 -61 0 c-58 0 -64 3 -117 46 -31 25 -56 47 -56 50 0 3 15 3 33 0 17 -3 53
-8 78 -11z m429 11 c0 -1 -27 -24 -59 -50 -55 -43 -63 -46 -118 -46 l-58 0 42
42 c34 34 52 43 90 49 58 8 103 10 103 5z m-331 -153 c-48 -53 -62 -60 -133
-66 -39 -4 -72 -5 -73 -3 -2 2 25 24 59 50 57 41 68 46 117 46 l54 0 -24 -27z
m271 -19 c34 -25 60 -48 58 -49 -2 -2 -37 1 -78 6 -68 8 -78 12 -115 49 l-40
40 58 0 c52 0 62 -4 117 -46z m-230 -41 c0 -52 -4 -64 -42 -115 -23 -31 -44
-56 -45 -54 -2 2 0 36 3 76 6 65 11 78 42 112 19 21 36 38 38 38 2 0 4 -26 4
-57z m84 18 c35 -35 39 -46 46 -112 5 -41 7 -75 6 -76 -1 -2 -26 26 -54 62
-47 58 -52 69 -52 115 0 27 4 50 8 50 4 0 25 -18 46 -39z"/>
<path d="M2434 1016 c-156 -184 -285 -386 -334 -524 -59 -162 29 -366 193
-446 157 -77 328 -46 457 83 89 89 122 239 80 367 -12 38 -36 94 -52 124 -34
61 -192 294 -221 325 -10 11 -33 39 -50 62 -18 23 -35 43 -38 43 -4 0 -20 -15
-35 -34z m154 -214 c212 -309 243 -412 169 -558 -97 -189 -355 -236 -512 -92
-68 62 -111 167 -102 251 11 106 86 244 264 486 l56 75 34 -40 c19 -21 59 -76
91 -122z"/>
<path d="M2421 788 c-17 -24 -38 -54 -49 -68 -33 -43 -104 -162 -134 -225 -34
-73 -37 -140 -7 -205 38 -85 115 -144 203 -156 37 -6 46 -3 55 13 12 24 -3 43
-34 43 -12 0 -44 11 -72 25 -93 47 -135 146 -99 235 22 55 129 232 178 293 42
54 43 58 26 75 -21 21 -37 13 -67 -30z"/>
</g>
</svg>
