<?xml version="1.0" standalone="no"?>
<!DOCTYPE svg PUBLIC "-//W3C//DTD SVG 20010904//EN"
 "http://www.w3.org/TR/2001/REC-SVG-20010904/DTD/svg10.dtd">
<svg version="1.0" xmlns="http://www.w3.org/2000/svg"
 width="500.000000pt" height="500.000000pt" viewBox="0 0 500.000000 500.000000"
 preserveAspectRatio="xMidYMid meet">

<g transform="translate(0.000000,500.000000) scale(0.100000,-0.100000)"
fill="#000000" stroke="none">
<path d="M1296 4830 c14 -55 107 -276 198 -475 54 -115 126 -284 162 -375 84
-215 82 -210 94 -210 5 0 10 2 10 5 0 15 -108 272 -190 455 -51 113 -128 287
-171 387 -43 100 -85 194 -94 210 -15 27 -15 27 -9 3z"/>
<path d="M2831 4812 c-27 -50 -158 -362 -215 -510 -35 -92 -94 -243 -130 -336
-67 -172 -74 -196 -56 -196 12 0 29 39 96 233 30 86 89 239 130 340 160 389
195 479 191 484 -3 2 -10 -4 -16 -15z"/>
<path d="M2051 4715 c0 -44 6 -210 14 -370 8 -159 15 -335 15 -390 0 -93 10
-139 26 -123 3 4 1 87 -5 185 -6 98 -16 304 -22 458 -11 272 -27 408 -28 240z"/>
<path d="M1874 4485 c-9 -23 10 -40 25 -22 9 11 8 17 -4 27 -12 10 -16 9 -21
-5z"/>
<path d="M2445 4418 c-8 -29 -28 -111 -44 -183 -17 -71 -46 -193 -66 -270 -40
-160 -39 -155 -21 -155 14 0 26 40 47 160 6 36 30 142 54 236 45 176 62 264
51 264 -3 0 -12 -24 -21 -52z"/>
<path d="M1887 4374 c-14 -15 -6 -34 14 -34 14 0 19 5 17 17 -3 18 -20 27 -31
17z"/>
<path d="M2225 4361 c-7 -12 12 -24 25 -16 11 7 4 25 -10 25 -5 0 -11 -4 -15
-9z"/>
<path d="M2827 4308 c-19 -35 -81 -148 -138 -253 -56 -104 -118 -217 -136
-250 -18 -33 -33 -66 -33 -72 0 -38 28 5 113 170 52 100 127 244 167 320 39
76 70 141 67 143 -3 3 -20 -23 -40 -58z"/>
<path d="M1704 4325 c3 -11 21 -71 41 -134 19 -62 47 -159 61 -215 34 -137 44
-166 56 -166 6 0 8 12 4 33 -13 68 -140 468 -153 485 -13 16 -14 16 -9 -3z"/>
<path d="M2226 4243 c-20 -138 -38 -395 -28 -405 15 -15 19 7 32 187 6 83 14
174 17 203 6 60 -12 74 -21 15z"/>
<path d="M1910 4238 c0 -24 39 -285 52 -346 11 -50 23 -71 35 -59 3 3 -5 57
-16 119 -12 62 -29 149 -37 193 -16 79 -33 129 -34 93z"/>
<path d="M3102 3966 c-158 -151 -309 -297 -336 -325 -48 -49 -57 -73 -19 -52
23 12 661 651 650 651 -4 0 -136 -123 -295 -274z"/>
<path d="M790 4187 c0 -2 39 -42 88 -88 48 -46 191 -186 317 -311 127 -126
236 -228 243 -228 24 0 11 18 -60 80 -40 35 -174 165 -298 289 -189 190 -290
279 -290 258z"/>
<path d="M1361 4130 c85 -134 173 -278 210 -339 41 -69 69 -98 69 -72 0 18
-246 395 -272 417 l-22 19 15 -25z"/>
<path d="M2967 4093 c-12 -11 -8 -23 8 -23 8 0 15 7 15 15 0 16 -12 20 -23 8z"/>
<path d="M1136 4071 c-7 -11 18 -33 27 -24 4 3 7 12 7 20 0 15 -26 18 -34 4z"/>
<path d="M2897 4014 c-9 -10 2 -24 19 -24 8 0 14 7 14 15 0 15 -21 21 -33 9z"/>
<path d="M1197 4003 c-12 -11 -8 -23 8 -23 8 0 15 7 15 15 0 16 -12 20 -23 8z"/>
<path d="M1261 3925 c0 -14 231 -288 247 -293 27 -8 9 24 -52 92 -127 141
-195 211 -195 201z"/>
<path d="M2753 3812 c-108 -127 -132 -162 -111 -162 19 0 227 265 216 275 -2
3 -50 -48 -105 -113z"/>
<path d="M3260 3835 c-10 -12 -9 -16 5 -21 23 -9 40 10 22 25 -11 9 -17 8 -27
-4z"/>
<path d="M3174 3766 c-8 -22 3 -33 18 -18 9 9 9 15 0 24 -9 9 -13 7 -18 -6z"/>
<path d="M946 3761 c-3 -5 1 -14 8 -20 16 -13 32 2 21 19 -8 12 -22 13 -29 1z"/>
<path d="M1030 3706 c0 -5 281 -211 307 -225 26 -13 46 -14 38 -2 -5 9 -107
81 -279 198 -43 30 -66 40 -66 29z"/>
<path d="M2965 3619 c-130 -80 -184 -123 -173 -135 11 -10 308 194 308 211 0
8 1 8 -135 -76z"/>
<path d="M290 3666 c0 -11 713 -299 898 -363 69 -24 98 -25 76 -3 -5 5 -56 25
-114 45 -58 20 -206 77 -330 127 -198 80 -512 198 -525 198 -3 0 -5 -2 -5 -4z"/>
<path d="M766 3640 c16 -16 516 -270 531 -270 33 0 2 21 -124 82 -76 37 -179
89 -228 115 -94 50 -198 92 -179 73z"/>
<path d="M2815 3475 c-282 -46 -504 -160 -624 -322 l-46 -62 -75 0 c-259 -4
-599 -103 -813 -238 -26 -16 -43 -21 -49 -15 -6 6 -31 5 -71 -5 -34 -8 -109
-21 -166 -29 -102 -14 -165 -33 -111 -34 14 0 90 9 170 20 79 10 146 18 147
16 2 -2 -22 -23 -53 -47 -76 -61 -148 -150 -192 -239 -42 -85 -46 -90 -87 -90
-48 0 -252 -46 -360 -80 -301 -96 -437 -222 -461 -424 -5 -41 -1 -72 15 -127
19 -61 31 -81 79 -129 92 -91 217 -138 433 -161 63 -7 117 -18 127 -26 15 -13
14 -14 -13 -9 -29 6 -29 6 -7 -7 18 -10 20 -15 10 -26 -11 -12 -10 -13 7 -6
24 10 64 10 73 0 4 -4 -2 -13 -13 -21 -17 -13 -18 -16 -5 -24 8 -5 19 -10 24
-10 5 0 1 -9 -10 -21 -12 -13 -27 -19 -41 -16 -13 2 -23 0 -23 -4 0 -5 7 -9
17 -9 14 0 14 -3 -3 -22 -19 -22 -19 -22 0 -8 15 12 20 12 23 3 3 -7 9 -13 14
-13 4 0 6 7 2 15 -5 16 22 55 39 55 4 0 8 -12 8 -27 0 -26 0 -26 21 -7 17 16
22 16 29 4 13 -20 12 -37 0 -45 -15 -9 -12 -25 4 -19 9 4 16 -3 19 -18 4 -21
4 -20 6 4 1 21 5 26 19 22 13 -5 12 -2 -4 13 -12 10 -25 28 -29 41 -6 21 -4
22 19 16 23 -5 26 -3 26 19 0 20 4 24 20 20 12 -3 27 -17 35 -32 11 -21 14
-22 15 -7 0 13 5 17 20 13 11 -3 18 -1 14 4 -3 5 -12 9 -21 9 -13 0 -14 2 -2
17 12 15 12 16 -6 9 -45 -19 -95 3 -56 24 25 13 19 30 -12 30 -21 0 -21 0 -2
18 24 23 168 49 173 32 3 -7 12 -6 27 4 19 12 30 13 54 5 l30 -11 -26 -23 -27
-23 33 -7 33 -7 -22 -23 c-17 -18 -29 -23 -51 -18 -18 3 -29 1 -29 -6 0 -6 7
-11 17 -11 14 0 14 -2 -2 -20 -10 -11 -16 -22 -13 -25 3 -3 11 1 18 10 16 19
30 19 30 -1 0 -8 5 -12 11 -8 6 3 9 14 6 24 -5 20 35 65 46 53 4 -3 7 -17 7
-30 0 -28 16 -30 30 -3 6 11 15 20 19 20 15 0 18 -57 4 -76 -7 -10 -13 -23
-13 -28 0 -6 7 -3 15 8 13 18 14 17 21 -8 8 -33 23 -34 17 -2 -4 22 -2 24 18
20 23 -5 23 -5 5 10 -10 8 -22 17 -26 18 -4 2 -11 18 -15 36 -7 32 -6 33 13
23 35 -19 44 -14 37 19 -6 29 -6 29 24 19 17 -6 31 -14 31 -18 0 -4 7 -16 16
-27 15 -18 15 -18 9 3 -6 21 -4 22 27 18 l33 -5 -29 13 c-18 9 -24 17 -17 21
21 14 11 25 -13 15 -14 -7 -37 -8 -52 -5 l-27 7 22 23 c23 24 19 36 -11 36
-21 0 -23 11 -7 27 9 9 18 9 38 -1 55 -28 138 -41 259 -41 67 0 122 -3 122 -7
0 -5 0 -11 -1 -15 0 -4 8 -10 18 -14 17 -7 17 -8 0 -8 -11 -1 -21 8 -24 19 -3
13 -13 20 -27 19 -18 -1 -18 -2 -3 -6 11 -3 16 -11 13 -19 -5 -13 28 -34 54
-34 7 0 7 22 0 40 -1 3 -2 9 -1 13 1 5 -3 6 -9 2 -5 -3 -10 -1 -10 5 0 7 7 9
16 6 9 -4 22 -2 28 3 6 5 48 18 92 28 78 19 83 19 115 2 19 -9 61 -25 94 -35
65 -20 79 -32 64 -50 -7 -8 -4 -11 8 -10 10 0 21 9 25 19 8 19 28 23 28 6 0
-6 9 -8 21 -4 19 6 21 4 17 -18 -4 -21 -2 -23 16 -19 11 3 15 7 8 10 -6 2 -12
9 -12 16 0 15 153 3 158 -13 2 -7 10 -6 23 2 16 10 21 9 28 -2 5 -7 10 -9 12
-3 3 6 22 6 57 -1 46 -10 51 -13 46 -31 -6 -18 -5 -19 9 -8 13 11 17 9 25 -15
l10 -28 1 27 1 26 168 -1 c92 -1 193 2 225 6 l58 9 -15 -36 c-8 -20 -12 -36
-9 -36 3 0 0 -7 -7 -15 -7 -8 -10 -15 -7 -15 3 0 -5 -24 -17 -53 -23 -51 -34
-80 -37 -95 0 -4 -5 -15 -10 -24 -5 -9 -11 -34 -14 -55 -6 -40 -63 -173 -80
-185 -5 -4 -7 -8 -3 -8 4 0 -12 -39 -34 -88 -56 -120 -108 -242 -104 -242 2 0
124 174 271 387 147 214 271 391 274 396 4 4 21 4 38 1 l32 -6 -35 -65 c-20
-38 -34 -79 -34 -99 0 -129 145 -206 245 -130 68 52 82 128 40 212 -14 27 -25
49 -25 49 0 0 49 0 109 0 70 0 107 -4 103 -10 -3 -5 -23 -34 -43 -63 -21 -30
-41 -67 -44 -83 -21 -96 105 -161 176 -90 40 41 39 90 -2 157 -17 27 -40 59
-51 70 l-19 22 58 6 c240 29 581 149 753 266 79 54 220 205 252 271 43 88 71
212 71 309 -1 100 -33 210 -87 293 -43 68 -131 148 -213 193 -115 65 -339 124
-467 124 l-52 0 -29 61 c-21 46 -59 92 -154 188 -136 138 -210 186 -326 212
-47 10 -60 19 -86 53 -57 78 -154 138 -276 172 -81 23 -322 28 -438 9z m391
-40 c137 -29 243 -91 296 -174 26 -42 33 -46 91 -58 116 -24 180 -64 318 -202
100 -100 132 -139 154 -188 30 -66 43 -73 125 -73 56 0 206 -28 280 -52 214
-69 366 -209 414 -379 36 -126 13 -323 -52 -443 -40 -74 -154 -189 -246 -251
-102 -67 -192 -109 -366 -168 -181 -62 -336 -89 -518 -91 l-143 -1 -43 49 -42
49 -30 -36 c-24 -29 -34 -34 -56 -30 -16 3 -28 10 -28 15 0 6 69 110 153 231
84 122 157 227 160 234 5 8 -31 12 -140 12 -81 1 -148 3 -149 4 -3 2 320 554
388 665 l20 32 -262 -2 -263 -3 -88 -210 c-49 -115 -130 -309 -181 -430 -50
-121 -100 -240 -111 -265 -11 -25 -26 -60 -34 -78 l-14 -33 118 6 c65 3 139 8
165 11 26 2 49 0 53 -6 3 -5 2 -10 -3 -10 -10 0 -25 -41 -27 -68 -1 -22 -25
-30 -135 -42 -111 -13 -319 -7 -352 11 -19 10 -25 39 -7 39 6 0 20 -5 31 -11
19 -10 20 -9 14 24 l-7 35 31 -11 c18 -7 33 -21 36 -34 4 -13 10 -23 16 -23 5
0 6 9 3 20 -7 23 -2 25 26 10 12 -7 19 -7 19 -1 0 5 -9 13 -21 16 -15 5 -18
10 -10 18 20 20 11 29 -14 13 -19 -12 -30 -14 -51 -6 l-27 11 23 24 23 25 -32
6 -32 7 22 23 c16 18 29 22 53 18 28 -5 29 -4 13 9 -15 13 -15 16 -2 27 8 7
15 17 15 23 0 5 -8 3 -18 -6 -23 -21 -29 -21 -35 1 -3 11 -5 8 -6 -9 0 -14
-12 -36 -26 -49 l-25 -23 -6 31 c-7 37 -19 40 -36 12 -7 -11 -16 -20 -19 -20
-13 0 -15 59 -2 76 17 23 17 40 0 25 -16 -13 -27 -5 -27 21 0 11 -4 17 -9 14
-4 -3 -6 -17 -4 -30 4 -22 2 -24 -18 -20 -23 5 -23 5 3 -12 25 -17 45 -60 34
-72 -3 -3 -18 0 -32 7 -26 12 -26 11 -20 -23 l7 -35 -31 10 c-16 6 -30 14 -30
18 0 4 -7 16 -16 27 -15 18 -15 18 -9 -4 6 -21 4 -22 -22 -17 l-28 6 24 -14
c15 -9 20 -17 12 -21 -6 -4 -11 -12 -11 -18 0 -6 11 -3 25 6 19 12 30 14 51 6
l27 -11 -23 -24 -23 -25 32 -6 32 -7 -20 -21 c-16 -17 -33 -22 -73 -23 -59 -2
-91 4 -84 16 3 4 -8 5 -25 3 -17 -3 -29 0 -29 7 0 6 5 11 10 11 18 0 10 18
-10 23 -11 3 -20 13 -20 22 0 12 -5 15 -21 10 -17 -6 -20 -3 -17 17 4 29 -12
49 -28 34 -8 -8 -8 -13 1 -21 16 -13 28 -75 15 -75 -9 0 -14 14 -11 33 0 4 -4
7 -10 7 -6 0 -9 -7 -5 -15 3 -8 1 -15 -5 -15 -6 0 -7 -5 -4 -10 3 -5 15 -10
25 -10 28 0 32 -15 4 -18 -13 -1 -24 2 -24 7 0 5 -9 7 -19 4 -21 -5 -125 27
-180 56 -30 16 -39 17 -78 5 -156 -47 -427 -55 -513 -16 -36 16 -39 20 -26 32
9 7 16 17 16 23 0 5 -8 3 -18 -6 -24 -22 -32 -21 -33 1 -1 16 -2 15 -6 -1 -4
-17 -6 -17 -29 -2 -21 14 -28 14 -59 1 -40 -17 -46 -6 -19 32 8 12 11 22 5 22
-5 0 -13 -5 -17 -12 -5 -8 -12 -2 -20 17 l-13 30 -1 -32 c0 -26 -3 -31 -17
-27 -13 4 -11 0 4 -12 13 -9 23 -22 23 -28 0 -15 -104 -50 -108 -36 -6 16 -22
12 -22 -6 0 -9 -7 -14 -17 -12 -10 1 -23 -1 -29 -4 -6 -4 -36 -10 -67 -12 -41
-4 -57 -2 -57 7 0 6 -5 4 -11 -5 -7 -13 -23 -18 -54 -18 -48 0 -63 11 -40 30
8 7 15 17 15 23 0 7 -4 7 -12 -1 -10 -10 -15 -7 -26 10 l-13 23 4 -22 c4 -17
0 -23 -11 -23 -15 -1 -15 -2 0 -14 43 -32 26 -32 -212 -1 -221 28 -335 69
-415 150 -69 68 -80 96 -80 200 0 78 4 97 28 147 36 73 118 148 216 198 133
66 372 132 561 154 l56 7 18 52 c27 78 63 134 133 208 209 222 639 388 1005
389 79 0 87 2 93 21 10 31 122 146 191 195 119 85 273 141 464 169 121 18 287
18 376 0z m-567 -1821 c-11 -14 -14 -13 -22 1 -6 12 -3 22 10 37 l18 20 3 -21
c2 -12 -2 -29 -9 -37z m-58 26 c26 -15 26 -50 -1 -43 -11 3 -20 9 -20 13 0 5
-3 15 -6 24 -7 19 0 20 27 6z m117 -38 c9 -6 5 -12 -13 -22 -20 -11 -28 -11
-38 -1 -20 20 23 40 51 23z m-113 -32 c0 -17 -28 -25 -52 -16 -14 6 -14 8 3
21 23 18 49 15 49 -5z m-1251 1 c3 -5 -1 -14 -9 -21 -8 -7 -15 -10 -15 -7 0 3
-3 12 -6 21 -7 17 20 23 30 7z m953 -11 c-3 -13 -1 -19 7 -18 6 2 12 -1 13 -7
1 -17 -9 -35 -19 -35 -6 0 -8 6 -5 14 3 7 1 18 -5 24 -6 6 -8 18 -5 26 9 23
20 20 14 -4z m-1008 -46 c-11 -14 -14 -13 -22 1 -6 12 -3 22 10 37 l18 20 3
-21 c2 -12 -2 -29 -9 -37z m1392 24 c14 -25 6 -32 -20 -18 -25 13 -30 53 -6
44 9 -4 20 -15 26 -26z m-70 -31 l-21 -21 0 25 c0 34 21 55 33 33 7 -12 3 -22
-12 -37z m-1377 37 c20 -8 21 -44 1 -44 -16 0 -38 34 -28 44 8 7 8 7 27 0z
m-44 -14 c0 -5 -7 -10 -16 -10 -8 0 -12 5 -9 10 3 6 10 10 16 10 5 0 9 -4 9
-10z m1390 -42 c0 -5 -12 -8 -27 -8 -26 0 -26 0 -8 20 14 16 20 17 27 8 4 -7
8 -16 8 -20z m-1227 15 c4 -3 -2 -12 -12 -20 -27 -19 -66 -1 -44 20 8 9 48 9
56 0z m-585 -41 c2 -7 -5 -12 -15 -12 -19 0 -43 18 -43 31 0 12 53 -6 58 -19z
m471 19 c20 -13 -23 -34 -51 -25 -21 6 -21 7 -3 20 22 16 34 17 54 5z m1401
-6 c0 -8 -4 -15 -9 -15 -13 0 -22 16 -14 24 11 11 23 6 23 -9z m-1839 -5 c10
-6 19 -18 19 -26 0 -23 -31 -13 -41 14 -9 25 -6 27 22 12z m59 -4 c0 -7 -7
-19 -15 -26 -12 -10 -15 -9 -15 7 0 11 3 23 7 26 11 12 23 8 23 -7z m466 -28
c8 -26 0 -32 -25 -18 -28 14 -29 50 -1 43 10 -3 22 -14 26 -25z m-56 -2 c0 -7
-9 -21 -20 -31 -19 -18 -20 -17 -20 6 0 27 18 51 32 43 4 -3 8 -11 8 -18z
m-360 -6 c0 -11 -48 -25 -56 -17 -4 3 -3 10 1 16 8 14 55 14 55 1z m-100 -21
c0 -14 -27 -22 -47 -15 -15 6 -14 8 3 20 19 14 44 11 44 -5z m2700 -20 c10
-17 7 -19 -20 -19 -31 0 -39 17 -18 38 13 13 24 8 38 -19z m-2684 -35 c-3 -8
-10 -14 -16 -14 -14 0 -13 33 3 49 10 10 13 9 15 -4 2 -9 1 -23 -2 -31z m57
24 c8 -29 5 -31 -21 -12 -27 19 -28 34 -3 34 11 0 21 -9 24 -22z m2567 -48 c0
-5 -13 -31 -30 -56 -50 -80 -49 -133 4 -176 23 -19 66 -24 66 -8 0 6 -9 10
-19 10 -11 0 -31 14 -46 32 -32 38 -29 59 20 138 32 53 36 55 72 52 43 -4 64
-24 89 -89 55 -142 -123 -257 -220 -143 -47 57 -45 114 10 207 22 39 54 58 54
33z m421 -103 c23 -35 39 -72 39 -89 0 -38 -48 -88 -85 -88 -60 0 -113 56 -99
104 9 34 87 145 97 139 5 -3 27 -33 48 -66z"/>
<path d="M2331 1605 c-1 -12 -7 -27 -13 -34 -10 -11 -8 -11 9 0 13 8 25 20 28
27 2 7 1 11 -4 7 -5 -3 -12 1 -14 7 -3 7 -6 4 -6 -7z"/>
<path d="M2180 1570 c0 -5 -8 -6 -17 -3 -15 6 -16 5 -3 -9 17 -18 41 -13 33 8
-6 16 -13 19 -13 4z"/>
<path d="M3771 1212 c-30 -47 -38 -85 -23 -108 10 -15 52 -37 59 -30 3 3 -6
11 -21 17 -41 19 -43 51 -6 109 18 28 30 53 28 56 -3 3 -20 -17 -37 -44z"/>
<path d="M595 3315 c15 -8 565 -136 610 -142 26 -4 37 -2 30 4 -5 6 -84 27
-175 48 -91 21 -210 49 -265 62 -92 21 -223 40 -200 28z"/>
<path d="M655 3111 c-8 -15 3 -31 21 -31 9 0 14 7 12 17 -4 20 -24 28 -33 14z"/>
<path d="M770 3081 c8 -5 80 -14 160 -21 261 -22 280 -23 280 -11 0 15 -25 19
-192 31 -178 12 -269 13 -248 1z"/>
<path d="M715 2940 c-321 -7 -452 -17 -437 -32 4 -4 93 -3 203 3 107 6 293 11
414 10 121 0 241 2 268 5 81 10 52 24 -45 22 -51 -1 -232 -5 -403 -8z"/>
<path d="M727 2774 c-14 -14 -7 -35 11 -32 9 2 17 10 17 17 0 16 -18 25 -28
15z"/>
<path d="M614 2749 c-3 -6 -2 -15 2 -19 12 -12 38 5 30 19 -9 14 -23 14 -32 0z"/>
<path d="M4633 1523 c-74 -93 -90 -157 -50 -206 59 -73 187 -28 187 66 0 24
-58 129 -89 160 -17 18 -19 17 -48 -20z m81 -47 c46 -70 52 -102 27 -143 -23
-36 -70 -51 -113 -34 -35 13 -61 63 -53 101 8 35 83 142 95 135 4 -3 24 -29
44 -59z"/>
<path d="M4641 1471 c-34 -47 -50 -93 -41 -117 9 -22 70 -51 70 -33 0 5 -8 9
-18 9 -49 0 -55 53 -12 117 34 50 35 72 1 24z"/>
<path d="M1670 1479 c0 -5 5 -7 10 -4 6 3 10 8 10 11 0 2 -4 4 -10 4 -5 0 -10
-5 -10 -11z"/>
<path d="M1703 1461 c-2 -21 23 -36 32 -21 4 6 -1 10 -9 10 -10 0 -13 6 -10
15 4 8 2 15 -3 15 -5 0 -9 -9 -10 -19z"/>
<path d="M1810 1434 c0 -8 5 -12 10 -9 6 4 8 11 5 16 -9 14 -15 11 -15 -7z"/>
<path d="M1991 1437 c-1 -12 -6 -16 -13 -11 -7 4 -5 -2 6 -14 10 -12 16 -28
13 -37 -9 -21 17 -19 34 2 12 14 12 15 0 9 -19 -12 -33 14 -18 33 9 11 9 13 0
8 -7 -4 -13 0 -16 10 -4 17 -5 17 -6 0z"/>
<path d="M4396 1398 c-20 -29 -36 -60 -36 -68 0 -8 9 4 21 26 11 23 29 50 40
60 19 17 20 17 34 -2 23 -29 55 -91 55 -107 0 -29 -41 -67 -73 -68 -31 -2 -31
-2 -4 -6 38 -6 74 19 82 56 5 23 0 43 -21 81 -15 27 -35 57 -45 66 -16 15 -20
12 -53 -38z"/>
<path d="M1740 1425 c-10 -12 -8 -13 10 -10 29 6 34 11 16 18 -8 3 -20 0 -26
-8z"/>
<path d="M1685 1410 c-3 -6 1 -7 9 -4 18 7 21 14 7 14 -6 0 -13 -4 -16 -10z"/>
<path d="M2095 1402 c-5 -4 -17 -16 -25 -27 -14 -18 -14 -19 2 -7 9 8 21 11
25 9 5 -3 9 3 9 14 0 10 0 19 -1 19 0 0 -4 -4 -10 -8z"/>
<path d="M1756 1391 c-4 -5 -2 -12 3 -15 5 -4 12 -2 15 3 4 5 2 12 -3 15 -5 4
-12 2 -15 -3z"/>
<path d="M4422 1388 c-5 -7 -17 -28 -26 -46 -16 -31 -16 -36 -1 -58 8 -13 23
-24 33 -23 13 0 13 2 -4 9 -34 14 -37 39 -9 86 25 42 28 58 7 32z"/>
<path d="M1575 1373 c5 -19 3 -22 -12 -16 -15 5 -14 2 5 -16 27 -27 29 -51 3
-44 -15 4 -20 -1 -23 -19 l-3 -23 -28 29 c-17 18 -25 23 -21 12 6 -15 3 -17
-17 -12 -20 6 -21 5 -6 -4 9 -6 15 -16 11 -21 -3 -6 4 -7 20 -3 36 9 54 -5 30
-23 -18 -13 -18 -14 4 -20 18 -4 20 -8 11 -19 -6 -8 -23 -14 -38 -14 -21 0
-23 -2 -11 -11 11 -8 12 -12 3 -16 -7 -2 -13 -9 -13 -15 0 -6 7 -5 16 3 13 10
17 10 24 -1 6 -10 9 -5 12 15 3 30 28 48 28 21 0 -19 11 -21 28 -4 17 17 28
-20 13 -45 -11 -17 -11 -19 2 -14 10 4 17 -1 20 -11 4 -16 5 -15 6 1 0 9 6 17
13 17 7 0 6 5 -4 13 -8 6 -18 20 -22 30 -5 15 -1 18 17 15 16 -2 21 1 19 15
-4 24 24 21 42 -5 9 -12 16 -17 16 -11 0 6 8 14 18 16 15 4 15 5 -2 6 -16 1
-17 3 -5 18 13 15 12 15 -7 5 -11 -6 -31 -8 -43 -5 -20 5 -21 7 -6 23 14 16
14 18 -1 24 -13 5 -14 9 -4 21 6 7 19 15 28 17 16 3 16 4 0 21 -17 16 -18 16
-18 -1 0 -9 -9 -23 -20 -30 -18 -11 -20 -10 -20 8 0 22 -15 27 -26 9 -5 -8
-10 -6 -16 6 -7 11 -6 21 1 28 13 13 15 30 2 22 -6 -3 -15 3 -21 12 -10 16
-10 15 -5 -4z m53 -96 c-4 -20 -1 -23 19 -19 27 5 31 -13 6 -23 -25 -9 -58 32
-42 51 17 20 22 17 17 -9z m-40 1 c16 -16 15 -28 -3 -28 -8 0 -15 2 -15 4 0 2
-3 11 -6 20 -7 19 7 21 24 4z m-4 -49 c-3 -5 -14 -9 -26 -9 -17 0 -18 3 -8 14
12 15 44 10 34 -5z m66 -26 c0 -20 -24 -11 -28 10 -2 12 1 15 12 11 9 -3 16
-13 16 -21z m-40 3 c0 -16 -18 -31 -27 -22 -8 8 5 36 17 36 5 0 10 -6 10 -14z"/>
<path d="M1926 1372 c2 -2 -2 -14 -8 -26 -10 -20 -10 -20 8 -4 12 12 15 21 8
27 -6 5 -9 6 -8 3z"/>
<path d="M1971 1368 c0 -9 -7 -19 -13 -21 -10 -4 -9 -6 1 -6 11 -1 11 -4 0
-17 -10 -13 -10 -17 1 -24 10 -6 7 -14 -16 -33 -25 -22 -26 -25 -9 -24 11 1
23 10 27 20 9 22 28 22 28 1 0 -14 3 -14 15 -4 8 7 15 9 15 4 0 -5 4 -2 9 6
14 21 1 34 -13 14 -10 -12 -15 -14 -20 -5 -10 15 38 61 62 61 15 -1 15 -2 2
-13 -16 -12 -15 -57 0 -57 5 0 7 7 4 15 -4 8 -1 15 6 15 6 0 8 5 4 11 -3 6 -1
15 5 19 8 5 4 12 -12 23 -22 14 -26 15 -31 1 -3 -8 -10 -12 -16 -9 -5 3 -10 2
-10 -4 0 -19 -29 0 -33 22 -3 14 -5 16 -6 5z m29 -48 c0 -5 -9 -10 -21 -10
-11 0 -17 5 -14 10 3 6 13 10 21 10 8 0 14 -4 14 -10z"/>
<path d="M4058 1283 c-54 -72 -95 -143 -108 -189 -15 -49 -2 -98 36 -143 l24
-29 -45 -67 c-49 -73 -57 -117 -29 -160 38 -58 137 -50 163 14 19 43 7 89 -39
154 -36 53 -37 55 -14 47 64 -25 141 1 182 60 29 43 30 116 1 173 -23 46 -121
187 -129 187 -3 0 -22 -21 -42 -47z m89 -50 c86 -123 102 -186 63 -248 -21
-34 -73 -65 -109 -65 -35 0 -86 26 -109 55 -33 42 -37 85 -13 140 23 52 107
175 120 175 4 0 26 -26 48 -57z m-76 -408 c43 -75 37 -120 -21 -150 -37 -19
-74 -11 -100 22 -33 43 -23 91 37 171 30 39 40 34 84 -43z"/>
<path d="M4056 1188 c-51 -81 -56 -94 -56 -136 0 -44 38 -92 71 -92 11 0 21 0
24 0 15 0 6 16 -11 18 -32 6 -64 43 -64 74 0 32 25 85 64 137 28 37 32 51 16
51 -6 0 -25 -24 -44 -52z"/>
<path d="M3981 818 c-17 -29 -31 -60 -31 -68 0 -26 30 -60 53 -59 l22 0 -22 9
c-48 20 -49 65 -2 132 12 16 19 32 16 35 -3 2 -19 -19 -36 -49z"/>
<path d="M2328 1303 c-3 -13 -2 -23 4 -23 6 0 8 -11 6 -25 -3 -14 -1 -25 3
-25 5 0 9 -7 9 -15 0 -22 -28 -7 -33 18 -4 18 -5 17 -6 -5 0 -15 -5 -30 -11
-33 -16 -10 -12 -22 10 -28 12 -3 20 -14 20 -26 0 -20 1 -21 24 -5 15 9 22 21
19 30 -3 8 0 14 6 14 6 0 11 -9 11 -20 0 -11 4 -20 10 -20 5 0 7 7 4 15 -4 8
-1 15 6 15 6 0 9 4 5 9 -3 5 -1 12 4 15 5 3 -3 19 -18 35 -20 23 -29 27 -40
18 -12 -10 -13 -6 -9 20 2 18 1 30 -3 27 -4 -2 -9 4 -11 13 -3 15 -5 14 -10
-4z m50 -77 c-4 -19 -1 -22 15 -18 14 3 18 1 13 -6 -18 -30 -55 -1 -42 33 9
24 19 17 14 -9z m-38 -34 c0 -13 -12 -22 -22 -16 -10 6 -1 24 13 24 5 0 9 -4
9 -8z m20 -26 c0 -8 -4 -18 -10 -21 -5 -3 -10 3 -10 14 0 12 5 21 10 21 6 0
10 -6 10 -14z"/>
<path d="M2096 1302 c-2 -4 -1 -14 5 -22 5 -10 9 -11 9 -3 0 8 7 10 18 6 16
-6 16 -6 0 10 -19 19 -25 21 -32 9z"/>
<path d="M4361 1294 c0 -11 9 -29 22 -40 22 -19 22 -19 6 1 -10 11 -19 29 -22
40 -4 19 -5 19 -6 -1z"/>
<path d="M2412 1251 c-8 -17 -8 -21 -1 -14 6 6 17 9 23 7 6 -2 12 4 12 14 0
27 -20 23 -34 -7z"/>
<path d="M2021 1232 c-8 -14 -6 -19 5 -19 7 0 14 4 14 9 0 5 6 6 13 2 8 -5 8
-2 -2 9 -17 21 -18 21 -30 -1z"/>
<path d="M2266 1238 c5 -8 2 -9 -11 -4 -14 5 -16 4 -7 -7 7 -8 9 -16 7 -19 -3
-3 5 -3 19 -1 23 5 23 6 8 24 -18 21 -27 25 -16 7z"/>
<path d="M4675 1175 c-75 -104 -105 -165 -105 -221 0 -150 184 -209 275 -89
39 51 40 112 2 184 -28 55 -116 181 -126 181 -3 0 -24 -25 -46 -55z m100 -49
c61 -86 87 -147 80 -188 -16 -92 -108 -141 -190 -102 -73 34 -95 116 -54 197
28 54 100 157 110 157 4 0 28 -29 54 -64z"/>
<path d="M4683 1092 c-72 -108 -80 -154 -35 -201 29 -31 87 -52 80 -29 -3 7
-14 14 -26 16 -26 4 -62 47 -62 74 0 23 34 91 66 135 24 32 31 53 17 53 -5 0
-22 -21 -40 -48z"/>
<path d="M886 1183 c7 -35 6 -37 -10 -24 -9 8 -20 10 -24 6 -4 -4 -2 -10 4
-12 26 -9 43 -30 49 -60 l6 -32 -31 10 c-38 14 -43 9 -31 -25 9 -22 8 -26 -7
-26 -24 0 -62 28 -62 45 0 8 -5 17 -12 21 -8 5 -9 0 -5 -16 5 -20 3 -22 -24
-16 -37 7 -38 -1 -1 -15 24 -9 25 -12 10 -20 -32 -18 -19 -29 15 -13 25 12 38
13 62 4 l29 -11 -29 -24 c-32 -25 -33 -23 21 -40 30 -10 -13 -43 -60 -48 -35
-3 -38 -5 -18 -12 l23 -8 -22 -23 c-26 -28 -19 -31 16 -8 24 16 25 15 25 -5 0
-12 5 -19 10 -16 6 3 10 19 10 34 0 24 25 61 42 61 3 0 8 -13 12 -30 6 -35 21
-39 36 -10 15 29 27 25 34 -12 4 -21 1 -37 -9 -48 -8 -9 -15 -23 -15 -31 1
-11 4 -10 14 4 18 24 26 21 26 -7 0 -14 5 -28 12 -32 8 -5 9 2 5 25 -6 29 -5
32 13 26 28 -9 25 9 -5 25 -14 7 -25 21 -25 31 0 9 -3 25 -6 33 -5 14 -2 15
21 6 42 -16 47 -13 40 21 -7 31 -6 32 21 25 16 -4 29 -8 30 -9 1 -1 9 -15 17
-32 15 -28 16 -28 17 -7 0 21 3 23 30 17 39 -9 39 3 -1 17 -26 9 -29 12 -15
20 9 5 16 14 16 20 0 6 -11 3 -26 -6 -21 -14 -31 -15 -59 -6 l-35 11 28 24
c21 18 24 25 12 28 -57 18 -55 16 -37 34 9 9 36 20 59 24 37 6 40 8 20 14
l-23 8 22 23 c12 13 18 24 12 24 -6 0 -16 -7 -23 -15 -17 -21 -28 -19 -33 8
-3 17 -5 15 -6 -9 0 -18 -11 -40 -24 -52 -30 -28 -37 -28 -37 1 0 35 -11 40
-36 16 -25 -23 -23 -25 -38 25 -3 8 4 26 15 40 11 13 15 27 10 30 -5 3 -12 -1
-15 -10 -8 -20 -26 -9 -26 16 0 10 -5 22 -11 25 -7 5 -8 -5 -3 -32z m77 -165
c-17 -19 -17 -19 -25 3 -6 16 -3 27 9 41 17 19 17 19 25 -3 6 -16 3 -27 -9
-41z m-68 30 c26 -12 35 -48 11 -48 -15 0 -30 16 -39 43 -8 20 -6 21 28 5z
m145 -46 c0 -14 -42 -33 -61 -27 -16 5 -18 10 -8 21 12 14 69 20 69 6z m-135
-32 c0 -10 -12 -16 -32 -18 -35 -3 -41 6 -21 26 17 17 53 11 53 -8z m96 -38
c5 -14 7 -27 5 -30 -10 -10 -56 29 -56 47 0 28 39 15 51 -17z m-77 -33 l-19
-21 -6 24 c-4 14 0 30 10 41 15 18 16 18 25 -2 7 -16 4 -26 -10 -42z"/>
<path d="M4368 1144 c-77 -107 -87 -157 -39 -205 63 -62 181 -22 181 63 0 33
-38 108 -83 162 l-23 29 -36 -49z m79 -32 c47 -72 55 -91 48 -122 -16 -71
-104 -93 -157 -40 -26 26 -30 36 -25 65 6 37 75 145 92 145 6 0 24 -21 42 -48z"/>
<path d="M4371 1084 c-38 -58 -41 -106 -9 -128 12 -9 29 -16 38 -16 8 0 0 9
-17 20 -42 25 -42 51 -2 114 16 27 28 51 25 53 -3 3 -19 -16 -35 -43z"/>
<path d="M2436 1172 c-2 -4 -1 -14 5 -22 5 -10 9 -11 9 -3 0 8 7 10 18 6 16
-6 16 -6 0 10 -19 19 -25 21 -32 9z"/>
<path d="M1958 1138 c4 -17 2 -20 -11 -15 -10 4 -17 2 -17 -3 0 -5 9 -11 19
-15 10 -3 21 -17 24 -31 4 -24 2 -26 -24 -20 -27 5 -29 4 -23 -19 10 -40 -30
-32 -54 10 -10 18 -11 18 -12 2 0 -14 -5 -17 -22 -12 l-23 6 23 -13 c18 -11
20 -16 10 -27 -11 -11 -9 -11 9 -2 13 6 34 9 48 5 l26 -6 -21 -23 -21 -23 27
-6 c26 -7 26 -7 8 -27 -12 -13 -27 -19 -41 -16 -13 2 -23 0 -23 -4 0 -5 5 -9
12 -9 6 0 3 -9 -7 -20 -19 -21 -7 -28 13 -8 10 10 15 10 22 -2 8 -12 10 -10
10 10 0 14 9 31 19 37 22 14 31 8 31 -20 0 -19 1 -19 18 -4 10 10 22 17 25 17
11 0 8 -58 -3 -65 -5 -3 -10 -11 -10 -18 0 -8 3 -8 12 1 10 10 15 7 26 -10 13
-22 13 -22 7 6 -5 24 -3 28 12 22 14 -6 13 -2 -5 17 -12 13 -22 31 -22 40 0
20 4 21 32 6 20 -11 21 -9 15 20 -6 30 -5 32 16 25 12 -4 23 -10 25 -14 1 -4
10 -16 18 -26 15 -18 15 -18 10 0 -5 15 -2 17 20 12 17 -5 23 -3 19 4 -3 5
-13 10 -21 10 -8 0 -14 5 -14 10 0 6 5 10 10 10 6 0 10 4 10 9 0 5 -13 5 -29
-2 -15 -5 -36 -7 -46 -3 -16 6 -17 8 -1 24 21 24 20 32 -4 32 -44 0 -11 39 35
41 18 1 23 3 12 6 -18 5 -18 6 -1 24 18 20 6 27 -14 7 -9 -9 -12 -8 -12 5 0 9
-4 17 -10 17 -5 0 -10 -12 -10 -28 0 -16 -8 -32 -20 -40 -17 -10 -20 -10 -20
6 0 28 -11 34 -31 16 -17 -15 -19 -14 -25 10 -4 19 -1 33 11 46 19 21 7 28
-13 8 -9 -9 -12 -7 -12 10 0 12 -4 22 -9 22 -5 0 -7 -10 -3 -22z m72 -107 c0
-10 -6 -24 -14 -30 -11 -9 -15 -7 -19 8 -5 19 9 41 25 41 4 0 8 -8 8 -19z
m-64 1 c18 -12 25 -42 9 -42 -13 0 -35 28 -35 44 0 8 13 7 26 -2z m104 -47
c-7 -8 -22 -15 -34 -15 -19 -1 -19 -2 -3 -11 21 -12 23 -39 2 -39 -22 0 -30
27 -17 56 8 17 20 24 38 24 22 0 25 -2 14 -15z m-102 -4 c18 -11 -12 -35 -34
-27 -13 5 -14 9 -4 21 14 17 20 18 38 6z m32 -40 c0 -10 -6 -24 -14 -30 -11
-9 -15 -7 -19 8 -5 19 9 41 25 41 4 0 8 -8 8 -19z"/>
<path d="M2285 1133 c-16 -14 -22 -23 -13 -20 9 3 19 1 22 -6 2 -7 5 -3 5 9 1
11 6 25 13 32 23 23 3 12 -27 -15z"/>
<path d="M2363 1104 c-10 -21 -9 -23 7 -14 9 5 21 6 26 2 5 -4 2 2 -6 13 -8
11 -15 21 -15 22 0 1 -5 -9 -12 -23z"/>
<path d="M2465 1006 c5 -23 3 -27 -9 -23 -23 9 -20 -6 4 -21 11 -7 20 -21 20
-32 0 -17 -5 -19 -25 -14 -24 6 -26 5 -19 -21 6 -24 4 -27 -10 -22 -10 4 -21
7 -26 7 -5 0 -12 9 -15 20 -3 11 -10 20 -15 20 -5 0 -7 -6 -4 -14 4 -10 -2
-12 -23 -10 -27 4 -27 4 -4 -6 19 -8 21 -13 11 -25 -8 -10 -9 -15 -2 -15 6 0
14 5 17 10 8 13 36 13 55 0 13 -9 13 -12 -2 -21 -24 -14 -23 -29 2 -29 11 0
20 -4 20 -8 0 -17 -25 -32 -54 -32 -30 0 -30 0 -8 -16 12 -8 22 -22 22 -30 0
-8 5 -14 10 -14 6 0 10 11 10 23 0 13 9 32 20 42 19 18 20 17 20 -3 0 -27 15
-36 30 -17 7 8 16 12 21 9 12 -7 11 -51 -1 -59 -5 -3 -10 -11 -10 -17 0 -7 6
-6 15 2 13 10 15 9 15 -9 0 -11 4 -21 9 -21 5 0 7 10 3 22 -4 17 -2 20 11 15
10 -4 17 -2 17 3 0 5 -9 12 -20 15 -13 4 -20 15 -20 31 0 21 3 24 25 18 24 -6
26 -4 19 21 -6 25 -5 27 17 20 13 -4 24 -8 25 -9 1 0 6 -10 12 -21 9 -16 11
-17 12 -3 0 11 6 15 23 11 22 -4 22 -4 -2 10 -21 12 -21 15 -6 21 10 3 15 9
12 12 -3 3 -15 1 -26 -5 -11 -7 -33 -8 -48 -5 l-26 7 21 18 c28 22 28 25 -4
33 -16 4 -29 17 -36 36 -11 33 -23 38 -32 14 -3 -8 -10 -12 -16 -9 -13 8 -13
52 0 60 6 3 10 11 10 18 0 8 -3 8 -12 -1 -9 -9 -15 -6 -25 16 l-13 27 5 -29z
m61 -134 c-14 -14 -16 -14 -22 1 -3 10 0 24 7 33 11 14 13 14 22 -1 6 -12 4
-22 -7 -33z m-52 22 c9 -3 16 -15 16 -25 0 -17 -3 -18 -20 -9 -11 6 -20 17
-20 25 0 17 2 17 24 9z m94 -33 c18 -11 -10 -34 -32 -25 -13 5 -14 9 -5 20 13
16 19 17 37 5z m-90 -20 c20 -12 -9 -32 -37 -24 -23 6 -23 7 -6 20 22 15 25
16 43 4z m66 -27 c26 -25 18 -45 -10 -26 -14 10 -26 42 -14 42 5 0 16 -7 24
-16z m-44 -29 c-7 -8 -16 -15 -21 -15 -14 0 -11 38 4 43 20 7 31 -11 17 -28z"/>
<path d="M3493 972 c-18 -26 -33 -52 -33 -57 0 -5 16 15 36 44 l37 54 18 -24
c10 -13 28 -42 39 -64 11 -22 20 -33 20 -24 0 19 -60 111 -75 116 -5 2 -25
-19 -42 -45z"/>
<path d="M3173 968 c-45 -64 -63 -103 -63 -140 0 -117 177 -131 205 -17 4 15
0 42 -9 64 -18 41 -83 135 -95 135 -4 0 -21 -19 -38 -42z m86 -39 c52 -77 56
-116 19 -156 -28 -30 -70 -38 -107 -19 -64 34 -66 92 -4 181 21 30 41 55 45
55 3 0 25 -28 47 -61z"/>
<path d="M3170 898 c-16 -29 -30 -61 -30 -70 0 -25 36 -58 63 -58 19 1 18 3
-9 14 -53 23 -53 48 -2 124 16 23 24 42 19 42 -6 0 -24 -24 -41 -52z"/>
<path d="M1435 960 c6 -19 4 -22 -9 -17 -23 9 -20 -6 4 -21 11 -7 20 -22 20
-33 0 -18 -4 -20 -26 -15 -24 6 -26 5 -20 -19 7 -27 -3 -32 -35 -15 -10 6 -19
17 -19 25 0 8 -4 15 -10 15 -5 0 -7 -7 -3 -16 4 -12 0 -14 -23 -9 -27 5 -27 5
-5 -5 20 -9 22 -12 10 -27 -12 -15 -12 -16 6 -9 37 15 50 16 65 6 13 -9 13
-12 -2 -21 -24 -14 -23 -25 4 -32 21 -6 21 -7 4 -26 -13 -15 -26 -19 -45 -15
-23 5 -24 4 -9 -9 16 -13 16 -15 0 -32 -16 -18 -16 -18 2 -4 15 11 20 11 23 2
8 -22 23 -14 23 10 0 13 9 32 20 42 20 18 20 17 20 -8 0 -31 6 -33 31 -11 17
15 19 14 25 -11 4 -15 2 -31 -5 -38 -17 -17 -13 -31 4 -17 13 11 15 8 15 -14
0 -15 4 -25 9 -22 5 3 7 15 4 26 -4 16 -2 19 13 15 15 -5 14 -3 -3 11 -13 9
-23 27 -23 40 0 21 4 23 24 18 21 -5 23 -3 19 20 -3 14 -2 26 1 26 18 0 48
-23 56 -43 l9 -22 0 22 c1 16 6 20 24 17 20 -4 20 -3 -3 7 -15 7 -20 13 -12
16 6 3 12 9 12 14 0 5 -8 4 -18 -2 -11 -7 -31 -9 -48 -5 l-29 8 25 19 25 19
-22 6 c-41 11 -18 43 32 45 16 1 22 3 13 6 -10 2 -18 7 -18 10 0 4 8 15 18 26
17 20 17 20 -10 3 -25 -16 -27 -16 -31 1 -3 12 -5 10 -6 -8 0 -14 -10 -34 -21
-44 -18 -17 -19 -16 -26 9 -6 25 -8 26 -23 11 -10 -8 -21 -15 -24 -15 -11 0
-8 58 3 65 6 3 10 11 10 17 0 7 -6 6 -15 -2 -12 -10 -15 -10 -15 3 0 9 -5 19
-11 23 -8 4 -9 -1 -4 -16z m63 -132 c-29 -18 -37 -3 -17 35 l12 21 9 -24 c6
-16 5 -26 -4 -32z m-54 26 c16 -6 23 -44 8 -44 -12 0 -32 23 -32 37 0 15 2 15
24 7z m106 -44 c0 -12 -38 -23 -51 -14 -9 5 -7 11 5 20 18 13 46 9 46 -6z
m-102 -9 c20 -12 -12 -34 -38 -26 -20 6 -21 7 -3 21 21 16 24 16 41 5z m66
-27 c20 -19 20 -34 1 -34 -16 0 -38 34 -28 44 9 8 9 8 27 -10z m-45 -36 c-5
-10 -14 -18 -19 -18 -14 0 -12 34 2 48 17 17 30 -6 17 -30z"/>
<path d="M3510 948 c-31 -50 -35 -76 -15 -98 10 -11 25 -20 34 -20 10 0 7 5
-9 13 -35 17 -36 40 -5 92 30 51 25 62 -5 13z"/>
<path d="M2591 951 c0 -14 -8 -33 -18 -43 -9 -10 -11 -18 -6 -18 6 0 16 6 22
14 6 7 23 11 39 9 24 -4 25 -3 9 7 -18 11 -18 12 0 33 l18 21 -27 -17 c-25
-16 -27 -16 -31 1 -3 12 -5 9 -6 -7z"/>
<path d="M3697 867 c-20 -23 -54 -74 -76 -112 -33 -56 -41 -79 -41 -119 0
-147 177 -210 273 -97 33 39 43 91 28 142 -11 36 -121 212 -141 224 -5 3 -24
-14 -43 -38z m78 -44 c61 -83 98 -167 91 -207 -12 -62 -75 -116 -137 -116 -36
0 -88 31 -109 65 -39 62 -23 125 63 248 22 31 44 57 48 57 5 0 25 -21 44 -47z"/>
<path d="M3694 773 c-68 -104 -79 -148 -48 -192 14 -19 69 -51 89 -51 17 0 1
21 -20 26 -30 7 -65 49 -65 77 0 21 64 142 80 152 12 7 13 35 2 35 -4 0 -21
-21 -38 -47z"/>
<path d="M3451 888 c-2 -46 41 -88 88 -88 25 0 71 38 71 58 0 12 -4 9 -13 -8
-30 -59 -111 -47 -134 20 -7 19 -12 27 -12 18z"/>
<path d="M4494 757 c-29 -39 -61 -91 -73 -114 -92 -183 140 -335 262 -172 33
46 33 100 0 171 -31 64 -117 188 -130 188 -5 0 -31 -33 -59 -73z m105 -20 c59
-78 94 -160 87 -202 -15 -77 -94 -128 -165 -106 -88 26 -124 117 -81 202 29
56 100 159 111 159 5 0 26 -24 48 -53z"/>
<path d="M4513 691 c-53 -80 -66 -115 -59 -154 7 -40 31 -64 75 -77 24 -7 31
-6 31 6 0 8 -8 14 -18 14 -28 0 -60 28 -67 59 -7 31 17 89 61 147 24 31 31 54
16 54 -4 0 -22 -22 -39 -49z"/>
<path d="M4223 738 c-65 -91 -78 -142 -47 -186 35 -50 104 -61 153 -24 36 27
47 63 33 109 -12 39 -78 134 -98 140 -6 2 -24 -16 -41 -39z m92 -41 c49 -72
53 -118 11 -153 -41 -36 -97 -33 -130 7 -39 46 -36 67 27 161 18 27 37 47 42
45 6 -2 28 -29 50 -60z"/>
<path d="M4242 703 c-25 -36 -52 -89 -52 -103 0 -18 47 -60 67 -60 12 0 8 6
-14 20 -42 25 -42 51 -2 114 32 52 34 75 1 29z"/>
<path d="M3377 715 c-77 -109 -86 -157 -38 -206 23 -23 38 -29 71 -29 23 0 50
5 61 10 24 13 49 61 49 94 0 21 -93 176 -106 176 -2 0 -19 -20 -37 -45z m72
-24 c65 -82 73 -142 24 -181 -39 -30 -88 -26 -125 10 -26 26 -30 36 -25 65 6
35 72 145 87 145 5 0 22 -18 39 -39z"/>
<path d="M3392 673 c-25 -36 -52 -89 -52 -103 0 -18 47 -60 67 -60 12 0 8 6
-14 20 -43 26 -43 57 -2 116 17 25 29 48 26 50 -3 3 -14 -7 -25 -23z"/>
<path d="M2365 729 c-11 -17 1 -21 15 -4 8 9 8 15 2 15 -6 0 -14 -5 -17 -11z"/>
<path d="M2307 659 c6 -30 5 -31 -16 -20 -14 8 -21 8 -21 1 0 -6 11 -15 24
-21 15 -7 26 -23 30 -42 8 -38 5 -41 -28 -26 -33 15 -39 9 -27 -25 8 -19 7
-26 -2 -26 -34 1 -57 15 -66 41 -12 35 -26 39 -17 4 6 -23 5 -24 -20 -15 -31
12 -34 12 -34 1 0 -5 12 -12 27 -16 27 -6 27 -7 9 -21 -28 -20 -12 -29 17 -9
22 14 29 14 58 2 l34 -13 -28 -18 c-35 -24 -34 -32 5 -40 l31 -6 -23 -25 c-19
-20 -30 -24 -52 -20 -17 4 -28 2 -28 -4 0 -6 8 -11 17 -11 14 0 12 -4 -7 -25
-27 -28 -8 -36 22 -8 17 15 18 15 18 -5 0 -12 5 -22 10 -22 6 0 10 15 10 34 0
25 6 38 25 50 23 15 25 15 25 -1 0 -10 5 -25 10 -33 8 -12 13 -11 33 8 l24 23
7 -31 c4 -21 1 -39 -9 -53 -21 -31 -18 -43 5 -22 20 18 20 17 20 -8 0 -14 5
-29 12 -33 8 -5 9 2 5 25 -6 29 -5 31 18 25 34 -8 32 2 -4 20 -20 11 -30 25
-33 46 -5 33 -2 35 37 20 27 -10 27 -10 21 26 -7 34 -6 35 16 29 31 -10 46
-23 53 -46 8 -25 25 -25 18 1 -5 18 -2 19 28 15 33 -5 33 -5 9 7 -14 6 -27 13
-29 15 -2 1 2 10 10 20 13 15 12 16 -6 8 -24 -11 -82 -11 -92 -1 -5 4 2 16 15
27 28 22 21 39 -15 39 l-26 0 23 25 c16 17 35 25 59 26 33 0 34 1 14 11 l-22
11 22 17 c12 10 19 22 15 26 -5 4 -16 0 -26 -9 -24 -22 -30 -21 -35 6 -3 16
-5 13 -6 -10 -1 -21 -11 -41 -28 -58 l-28 -25 -3 22 c-6 48 -11 52 -36 29 -12
-11 -26 -18 -29 -14 -12 12 -7 58 9 81 16 23 7 31 -13 11 -9 -9 -14 -5 -19 15
-9 37 -25 33 -17 -5z m87 -157 c-6 -9 -15 -17 -21 -19 -18 -6 -20 30 -4 56
l15 24 10 -23 c6 -14 6 -27 0 -38z m-54 -8 c0 -18 -4 -22 -17 -17 -22 8 -33
23 -33 45 0 15 4 16 25 6 16 -7 25 -19 25 -34z m115 -14 c8 -13 -40 -34 -60
-26 -14 5 -15 9 -5 21 14 17 56 20 65 5z m-132 -19 c18 -6 18 -7 0 -24 -14
-12 -27 -14 -48 -9 l-29 8 24 17 c27 19 27 19 53 8z m37 -50 c0 -10 -9 -26
-20 -36 -20 -18 -20 -17 -20 11 0 31 17 57 32 48 4 -3 8 -13 8 -23z m46 21 c6
-4 15 -18 19 -30 6 -22 5 -23 -17 -17 -25 8 -38 22 -38 43 0 13 19 16 36 4z"/>
<path d="M1903 663 c4 -18 1 -23 -16 -23 -22 -1 -22 -1 -2 -12 25 -14 35 -28
35 -50 0 -15 -4 -16 -26 -8 -25 10 -26 9 -20 -15 9 -35 -25 -34 -54 3 -14 17
-20 20 -16 8 5 -16 2 -17 -21 -12 -27 6 -27 6 -5 -7 18 -10 20 -15 10 -26 -11
-12 -10 -13 7 -6 22 9 65 8 74 -1 3 -3 -2 -12 -13 -19 -20 -15 -14 -35 11 -35
14 0 13 -3 -3 -21 -12 -13 -27 -19 -41 -16 -13 2 -23 0 -23 -4 0 -5 7 -9 17
-9 14 0 14 -2 -3 -21 -19 -22 -19 -22 4 -10 14 8 22 8 22 1 0 -5 5 -10 10 -10
6 0 10 10 10 23 0 23 17 47 32 47 4 0 8 -11 8 -25 0 -29 14 -33 29 -7 9 15 12
15 21 2 13 -19 13 -37 0 -45 -15 -9 -12 -25 4 -19 9 4 16 -3 19 -18 4 -21 4
-20 6 4 1 22 5 26 19 21 13 -5 12 -2 -5 13 -12 10 -24 30 -28 43 -6 21 -5 23
11 17 34 -13 39 -11 36 16 -3 23 0 26 18 21 11 -3 27 -17 35 -32 11 -21 14
-22 15 -7 0 13 5 17 20 13 11 -3 18 -1 14 4 -3 5 -12 9 -21 9 -13 0 -13 3 -3
15 14 17 7 19 -18 6 -10 -5 -27 -5 -41 0 l-23 9 23 19 24 19 -28 7 c-27 7 -27
8 -11 26 9 11 29 19 43 19 21 0 23 2 11 11 -11 8 -12 12 -2 16 6 2 12 10 12
16 0 8 -4 7 -12 -1 -17 -17 -26 -15 -31 6 -3 11 -5 8 -6 -9 -1 -27 -33 -64
-44 -52 -4 3 -7 15 -7 26 0 19 -1 19 -18 4 -25 -22 -29 -21 -34 8 -3 14 1 30
8 36 8 6 14 16 14 22 0 7 -4 7 -12 -1 -10 -10 -15 -7 -26 10 l-13 23 4 -22z
m55 -144 c-18 -12 -23 17 -6 38 12 15 13 14 16 -7 2 -12 -2 -27 -10 -31z m-28
5 c0 -25 -35 -12 -38 14 -3 21 -1 22 17 12 12 -6 21 -18 21 -26z m90 -14 c0
-11 -48 -25 -56 -17 -4 3 -3 10 1 16 8 14 55 14 55 1z m-102 -22 c-5 -15 -58
-24 -58 -9 0 11 17 19 43 20 11 1 17 -4 15 -11z m18 -54 c-3 -8 -10 -14 -16
-14 -14 0 -13 33 3 49 10 10 13 9 15 -4 2 -9 1 -23 -2 -31z m54 27 c14 -27 13
-31 -7 -24 -31 11 -44 43 -18 43 8 0 19 -9 25 -19z"/>
<path d="M936 647 c2 -14 -2 -16 -19 -12 l-22 6 21 -18 c21 -17 42 -63 29 -63
-3 0 -16 5 -27 11 -19 10 -20 9 -14 -16 6 -23 4 -26 -16 -23 -12 2 -28 14 -35
28 -10 20 -13 21 -13 6 0 -13 -5 -17 -20 -13 -11 3 -18 1 -14 -4 3 -5 12 -9
21 -9 13 0 13 -3 3 -15 -14 -16 0 -21 16 -5 14 14 56 0 50 -16 -6 -16 5 -19
20 -4 6 6 15 6 24 0 13 -9 13 -11 0 -20 -8 -5 -21 -8 -27 -5 -7 3 -20 8 -28
11 -8 3 -15 2 -15 -4 0 -5 10 -12 22 -15 18 -5 19 -8 8 -21 -7 -9 -27 -17 -44
-17 -17 -1 -23 -3 -14 -6 9 -2 20 -13 23 -24 8 -24 25 -25 25 -1 0 19 18 42
32 42 4 0 8 -9 8 -20 0 -24 8 -25 30 -5 16 15 18 14 22 -10 3 -14 -1 -30 -8
-36 -8 -6 -14 -16 -14 -22 0 -7 4 -7 12 1 10 10 15 7 26 -10 13 -23 13 -23 7
4 -4 23 -2 26 12 21 14 -5 13 -1 -4 16 -32 31 -31 55 2 47 23 -6 25 -4 19 20
-6 24 -5 26 17 19 13 -4 24 -8 25 -9 1 0 6 -10 12 -21 9 -16 11 -17 12 -3 0
11 7 15 23 12 20 -4 20 -3 -3 7 -15 7 -20 13 -12 16 6 3 12 8 12 13 0 5 -13 3
-30 -3 -23 -9 -33 -8 -42 1 -9 9 -8 15 8 27 19 14 19 15 -3 21 -13 3 -23 10
-23 14 0 16 31 32 50 27 11 -3 20 -1 20 4 0 5 -5 9 -12 9 -9 0 -9 3 0 12 20
20 13 32 -7 14 -18 -17 -19 -17 -24 1 -3 13 -5 11 -6 -7 -2 -42 -41 -70 -41
-30 0 21 -15 27 -25 10 -10 -17 -22 -11 -28 12 -4 14 0 30 11 41 16 19 16 19
-5 13 -14 -4 -23 -2 -26 6 -2 7 -3 5 -1 -5z m64 -96 c0 -10 -7 -24 -15 -31
-13 -10 -15 -9 -15 12 0 14 3 28 7 31 12 13 23 7 23 -12z m-40 -27 c0 -11 -6
-14 -16 -10 -9 3 -18 6 -20 6 -2 0 -4 9 -4 20 0 18 3 19 20 10 11 -6 20 -18
20 -26z m80 -19 c-7 -8 -22 -15 -34 -15 -19 -1 -19 -2 -3 -11 22 -13 23 -44 1
-35 -9 3 -18 6 -20 6 -8 0 -4 31 6 51 6 11 21 19 37 19 21 0 24 -2 13 -15z
m-70 -44 c0 -10 -7 -24 -15 -31 -13 -10 -15 -9 -15 12 0 14 3 28 7 31 12 13
23 7 23 -12z"/>
<path d="M3989 568 c-101 -143 -118 -208 -74 -283 75 -129 268 -85 283 64 3
38 -2 59 -26 107 -27 53 -118 184 -128 184 -2 0 -27 -33 -55 -72z m148 -92
c44 -71 52 -127 25 -175 -21 -39 -73 -71 -115 -71 -60 0 -124 54 -134 114 -7
42 30 125 93 210 l37 50 29 -35 c16 -18 45 -60 65 -93z"/>
<path d="M4000 489 c-54 -83 -67 -127 -49 -165 17 -35 73 -69 97 -59 14 6 12
9 -13 17 -91 31 -92 86 -4 215 17 24 25 44 19 48 -5 3 -28 -22 -50 -56z"/>
<path d="M1344 566 c-8 -8 -7 -14 1 -21 7 -5 15 -25 19 -43 5 -31 4 -32 -21
-26 -17 5 -24 3 -19 -4 3 -6 1 -14 -5 -17 -7 -5 -3 -12 10 -22 12 -8 21 -21
21 -29 0 -17 16 -19 26 -3 3 6 17 9 30 6 13 -2 24 0 24 4 0 5 -9 9 -21 9 -13
0 -20 6 -18 18 1 9 -1 25 -6 35 -5 11 -3 23 5 30 10 10 12 7 7 -11 -3 -12 -1
-20 4 -16 17 10 31 -7 18 -22 -6 -8 -10 -17 -7 -20 3 -2 13 7 22 21 15 23 15
25 0 25 -13 0 -14 3 -4 15 7 8 18 15 25 15 6 0 12 7 12 15 0 8 -4 12 -8 9 -4
-2 -10 2 -12 8 -3 7 -6 3 -6 -9 -1 -26 -20 -41 -30 -24 -4 7 -15 9 -26 5 -15
-6 -17 -3 -13 17 5 30 -12 51 -28 35z m21 -116 c-3 -5 -13 -10 -21 -10 -8 0
-14 5 -14 10 0 6 9 10 21 10 11 0 17 -4 14 -10z m15 -17 c0 -5 -5 -15 -10 -23
-8 -12 -10 -11 -10 8 0 12 5 22 10 22 6 0 10 -3 10 -7z"/>
<path d="M3124 508 c-70 -95 -107 -179 -99 -226 13 -81 70 -132 148 -132 126
0 193 112 139 231 -24 54 -119 189 -132 189 -6 0 -31 -28 -56 -62z m114 -46
c88 -131 96 -192 33 -255 -24 -24 -40 -31 -84 -35 -49 -4 -57 -2 -90 28 -21
18 -42 48 -48 69 -10 33 -8 45 10 87 22 50 110 184 120 184 4 0 30 -35 59 -78z"/>
<path d="M3158 463 c-9 -10 -30 -43 -47 -74 -41 -73 -41 -120 -2 -160 28 -28
81 -41 81 -19 0 6 -9 10 -20 10 -29 0 -70 44 -70 75 0 29 30 94 66 142 13 17
24 34 24 37 0 12 -17 5 -32 -11z"/>
<path d="M1290 503 c0 -7 -6 -11 -12 -9 -7 1 -10 1 -5 -1 4 -3 5 -9 1 -14 -6
-11 6 -12 23 -1 8 5 9 13 3 22 -6 10 -10 11 -10 3z"/>
<path d="M1330 499 c0 -5 5 -7 10 -4 6 3 10 8 10 11 0 2 -4 4 -10 4 -5 0 -10
-5 -10 -11z"/>
<path d="M1637 487 c-3 -8 -1 -19 5 -25 17 -17 -18 -48 -36 -33 -10 8 -16 9
-21 1 -3 -5 -5 -10 -3 -11 2 0 11 -2 21 -4 10 -2 29 -10 42 -19 16 -11 26 -12
30 -5 4 6 -2 13 -14 16 -12 3 -21 10 -21 16 0 6 3 7 7 4 3 -4 12 -2 20 4 10 9
13 8 13 -5 0 -9 4 -16 9 -16 5 0 7 -9 4 -19 -6 -23 -43 -36 -43 -15 0 8 -7 14
-15 14 -13 0 -13 -3 -3 -20 7 -11 19 -18 27 -15 9 4 12 -1 8 -15 -3 -11 -1
-20 4 -20 5 0 9 9 9 19 0 11 5 21 12 23 6 2 12 19 13 38 1 19 7 36 13 38 7 2
12 8 12 14 0 6 -9 3 -19 -6 -13 -12 -21 -14 -26 -6 -3 5 -11 8 -16 5 -5 -4 -9
2 -9 12 0 10 -4 24 -9 31 -7 11 -9 11 -14 -1z"/>
<path d="M1464 442 c-17 -6 -19 -9 -9 -19 13 -12 29 -5 33 15 1 6 1 12 0 11
-2 -1 -13 -4 -24 -7z"/>
<path d="M1305 412 c-19 -6 -19 -8 -5 -23 15 -14 17 -13 27 8 12 24 10 25 -22
15z"/>
<path d="M835 390 c-3 -5 -2 -10 4 -10 5 0 13 5 16 10 3 6 2 10 -4 10 -5 0
-13 -4 -16 -10z"/>
<path d="M1391 393 c-1 -6 -4 -18 -7 -26 -4 -12 0 -14 16 -10 12 3 17 9 12 12
-5 3 -12 13 -15 21 -3 8 -6 10 -6 3z"/>
<path d="M1725 380 c-3 -5 1 -10 10 -10 9 0 13 5 10 10 -3 6 -8 10 -10 10 -2
0 -7 -4 -10 -10z"/>
<path d="M3639 348 c-60 -83 -73 -117 -60 -160 17 -54 55 -75 127 -70 27 2 70
46 76 76 3 14 0 40 -7 59 -14 40 -82 137 -96 137 -5 0 -23 -19 -40 -42z m90
-39 c28 -42 41 -72 41 -96 0 -95 -146 -116 -178 -25 -8 23 -6 38 9 71 20 46
67 111 79 111 5 0 27 -28 49 -61z"/>
<path d="M3641 284 c-17 -26 -31 -58 -31 -71 0 -27 33 -63 58 -63 12 1 10 5
-10 15 -15 8 -29 24 -33 34 -6 20 15 72 43 104 8 9 12 20 9 23 -3 4 -20 -15
-36 -42z"/>
<path d="M1610 360 c-11 -7 -12 -12 -4 -20 8 -8 13 -6 17 9 3 12 4 21 4 21 -1
0 -9 -5 -17 -10z"/>
<path d="M4255 316 c-21 -30 -35 -61 -32 -68 4 -9 6 -8 6 3 1 8 16 37 35 63
l34 48 27 -41 c15 -22 30 -41 32 -41 7 0 -31 61 -49 77 -15 14 -20 10 -53 -41z"/>
<path d="M4571 311 c-43 -54 -71 -120 -64 -154 14 -70 113 -101 171 -52 38 32
45 69 22 120 -21 48 -76 125 -89 125 -5 0 -23 -18 -40 -39z m71 -13 c67 -88
75 -142 27 -182 -17 -15 -43 -26 -59 -26 -41 0 -90 44 -90 81 0 42 66 159 90
159 4 0 19 -15 32 -32z"/>
<path d="M4584 267 c-53 -78 -56 -106 -18 -136 40 -31 51 -25 15 8 -17 16 -31
32 -31 36 0 11 32 69 47 87 8 9 13 22 12 27 -2 6 -14 -4 -25 -22z"/>
<path d="M4272 293 c-10 -16 -22 -37 -26 -47 -8 -24 19 -66 42 -65 13 0 13 2
-4 9 -39 16 -40 48 -2 103 11 15 17 27 14 27 -2 0 -13 -12 -24 -27z"/>
<path d="M4367 243 c4 -25 0 -37 -20 -57 -39 -39 -98 -30 -117 17 -6 16 -9 18
-9 5 -1 -20 45 -58 70 -58 56 0 102 59 81 103 -10 19 -10 18 -5 -10z"/>
</g>
</svg>
